<?xml version="1.0" encoding="UTF-8"?>
<svg xmlns="http://www.w3.org/2000/svg" viewBox="0 0 400 400">
  <!-- Background gradient -->
  <defs>
    <radialGradient id="bg-gradient" cx="50%" cy="50%" r="70%" fx="50%" fy="50%">
      <stop offset="0%" stop-color="#2A0A4A"/>
      <stop offset="50%" stop-color="#191342"/>
      <stop offset="100%" stop-color="#0B0B25"/>
    </radialGradient>
    
    <!-- Chakra colors gradient -->
    <linearGradient id="chakra-gradient" x1="0%" y1="0%" x2="100%" y2="100%">
      <stop offset="0%" stop-color="#FF0000" stop-opacity="0.7"/> <!-- Root -->
      <stop offset="16.6%" stop-color="#FF7F00" stop-opacity="0.7"/> <!-- Sacral -->
      <stop offset="33.2%" stop-color="#FFFF00" stop-opacity="0.7"/> <!-- Solar Plexus -->
      <stop offset="49.8%" stop-color="#00FF00" stop-opacity="0.7"/> <!-- Heart -->
      <stop offset="66.4%" stop-color="#0000FF" stop-opacity="0.7"/> <!-- Throat -->
      <stop offset="83%" stop-color="#4B0082" stop-opacity="0.7"/> <!-- Third Eye -->
      <stop offset="100%" stop-color="#9400D3" stop-opacity="0.7"/> <!-- Crown -->
    </linearGradient>
    
    <!-- Glowing effect -->
    <filter id="glow">
      <feGaussianBlur stdDeviation="5" result="blur"/>
      <feComposite in="SourceGraphic" in2="blur" operator="over"/>
    </filter>
  </defs>
  
  <!-- Background -->
  <rect width="100%" height="100%" fill="url(#bg-gradient)"/>
  
  <!-- Stars -->
  <g id="stars">
    <circle cx="50" cy="40" r="1" fill="white" opacity="0.8"/>
    <circle cx="120" cy="60" r="0.8" fill="white" opacity="0.6"/>
    <circle cx="200" cy="30" r="1.2" fill="white" opacity="0.9"/>
    <circle cx="280" cy="50" r="1" fill="white" opacity="0.7"/>
    <circle cx="350" cy="70" r="0.9" fill="white" opacity="0.8"/>
    <circle cx="70" cy="100" r="1.1" fill="white" opacity="0.7"/>
    <circle cx="150" cy="120" r="0.7" fill="white" opacity="0.6"/>
    <circle cx="250" cy="90" r="1" fill="white" opacity="0.9"/>
    <circle cx="320" cy="130" r="0.8" fill="white" opacity="0.7"/>
    <circle cx="30" cy="180" r="1" fill="white" opacity="0.8"/>
    <circle cx="90" cy="220" r="0.9" fill="white" opacity="0.7"/>
    <circle cx="160" cy="200" r="1.2" fill="white" opacity="0.8"/>
    <circle cx="230" cy="170" r="0.7" fill="white" opacity="0.6"/>
    <circle cx="300" cy="210" r="1" fill="white" opacity="0.9"/>
    <circle cx="370" cy="190" r="0.8" fill="white" opacity="0.7"/>
    <circle cx="50" cy="260" r="1.1" fill="white" opacity="0.8"/>
    <circle cx="130" cy="280" r="0.9" fill="white" opacity="0.7"/>
    <circle cx="200" cy="250" r="0.8" fill="white" opacity="0.6"/>
    <circle cx="270" cy="270" r="1" fill="white" opacity="0.9"/>
    <circle cx="340" cy="240" r="0.7" fill="white" opacity="0.7"/>
    <circle cx="20" cy="310" r="1" fill="white" opacity="0.8"/>
    <circle cx="80" cy="340" r="0.8" fill="white" opacity="0.6"/>
    <circle cx="160" cy="330" r="1.2" fill="white" opacity="0.9"/>
    <circle cx="230" cy="350" r="0.9" fill="white" opacity="0.7"/>
    <circle cx="300" cy="320" r="1" fill="white" opacity="0.8"/>
    <circle cx="360" cy="360" r="0.7" fill="white" opacity="0.6"/>
  </g>
  
  <!-- Main cosmic healing element - chakra spiral -->
  <g filter="url(#glow)">
    <path d="M200,200 m-80,0 a80,80 0 1,0 160,0 a80,80 0 1,0 -160,0" 
          fill="none" 
          stroke="url(#chakra-gradient)" 
          stroke-width="15" 
          opacity="0.8"/>
    
    <!-- Small chakra symbols -->
    <circle cx="200" cy="120" r="15" fill="#ff0000" opacity="0.8" /> <!-- Root -->
    <circle cx="265" cy="160" r="15" fill="#ff7f00" opacity="0.8" /> <!-- Sacral -->
    <circle cx="265" cy="240" r="15" fill="#ffff00" opacity="0.8" /> <!-- Solar Plexus -->
    <circle cx="200" cy="280" r="15" fill="#00ff00" opacity="0.8" /> <!-- Heart -->
    <circle cx="135" cy="240" r="15" fill="#0000ff" opacity="0.8" /> <!-- Throat -->
    <circle cx="135" cy="160" r="15" fill="#4b0082" opacity="0.8" /> <!-- Third Eye -->
    <circle cx="200" cy="200" r="15" fill="#9400d3" opacity="0.8" /> <!-- Crown -->
  </g>
  
  <!-- Light rays -->
  <g opacity="0.3">
    <line x1="200" y1="0" x2="200" y2="400" stroke="white" stroke-width="1"/>
    <line x1="0" y1="200" x2="400" y2="200" stroke="white" stroke-width="1"/>
    <line x1="0" y1="0" x2="400" y2="400" stroke="white" stroke-width="1"/>
    <line x1="400" y1="0" x2="0" y2="400" stroke="white" stroke-width="1"/>
  </g>
  
  <!-- Central glow -->
  <circle cx="200" cy="200" r="30" fill="white" opacity="0.2" filter="url(#glow)"/>
  
  <!-- Album title area (transparent box for text) -->
  <rect x="50" y="310" width="300" height="60" rx="10" ry="10" fill="#191342" opacity="0.7"/>
</svg>