<?xml version="1.0" encoding="UTF-8"?>
<svg xmlns="http://www.w3.org/2000/svg" viewBox="0 0 400 400">
  <!-- Definitions for gradients and effects -->
  <defs>
    <!-- Deep space background -->
    <linearGradient id="bg-gradient" x1="0%" y1="0%" x2="100%" y2="100%">
      <stop offset="0%" stop-color="#051937"/>
      <stop offset="50%" stop-color="#0B306E"/>
      <stop offset="100%" stop-color="#2C4E7E"/>
    </linearGradient>
    
    <!-- Mystical nebula gradient -->
    <radialGradient id="nebula-gradient" cx="50%" cy="50%" r="70%" fx="30%" fy="30%">
      <stop offset="0%" stop-color="#9C56E8" stop-opacity="0.8"/>
      <stop offset="50%" stop-color="#7A4DE3" stop-opacity="0.5"/>
      <stop offset="100%" stop-color="#6148CB" stop-opacity="0.2"/>
    </radialGradient>
    
    <!-- Meditation energy gradient -->
    <linearGradient id="energy-gradient" x1="0%" y1="0%" x2="0%" y2="100%">
      <stop offset="0%" stop-color="#CDE3F1" stop-opacity="0.9"/>
      <stop offset="50%" stop-color="#8FAECE" stop-opacity="0.6"/>
      <stop offset="100%" stop-color="#5C7EA4" stop-opacity="0.3"/>
    </linearGradient>
    
    <!-- Glowing effect -->
    <filter id="glow">
      <feGaussianBlur stdDeviation="4" result="blur"/>
      <feComposite in="SourceGraphic" in2="blur" operator="over"/>
    </filter>
    
    <!-- Star twinkle animation -->
    <filter id="twinkle">
      <feTurbulence type="fractalNoise" baseFrequency="0.01" numOctaves="2" result="noise"/>
      <feDisplacementMap in="SourceGraphic" in2="noise" scale="5" xChannelSelector="R" yChannelSelector="G"/>
    </filter>
  </defs>
  
  <!-- Background -->
  <rect width="100%" height="100%" fill="url(#bg-gradient)"/>
  
  <!-- Nebula cloud effect -->
  <ellipse cx="200" cy="200" rx="180" ry="160" fill="url(#nebula-gradient)" opacity="0.6" filter="url(#glow)"/>
  
  <!-- Stars (smaller and more subtle) -->
  <g id="stars" filter="url(#twinkle)">
    <circle cx="50" cy="40" r="0.8" fill="white" opacity="0.7"/>
    <circle cx="100" cy="80" r="0.6" fill="white" opacity="0.6"/>
    <circle cx="150" cy="50" r="0.9" fill="white" opacity="0.8"/>
    <circle cx="200" cy="30" r="0.7" fill="white" opacity="0.7"/>
    <circle cx="250" cy="70" r="0.8" fill="white" opacity="0.6"/>
    <circle cx="300" cy="40" r="0.6" fill="white" opacity="0.7"/>
    <circle cx="350" cy="60" r="0.7" fill="white" opacity="0.8"/>
    <circle cx="30" cy="120" r="0.6" fill="white" opacity="0.6"/>
    <circle cx="80" cy="150" r="0.7" fill="white" opacity="0.7"/>
    <circle cx="130" cy="130" r="0.8" fill="white" opacity="0.8"/>
    <circle cx="180" cy="160" r="0.6" fill="white" opacity="0.6"/>
    <circle cx="230" cy="140" r="0.9" fill="white" opacity="0.7"/>
    <circle cx="280" cy="120" r="0.7" fill="white" opacity="0.6"/>
    <circle cx="330" cy="150" r="0.8" fill="white" opacity="0.8"/>
    <circle cx="40" cy="200" r="0.7" fill="white" opacity="0.7"/>
    <circle cx="90" cy="230" r="0.6" fill="white" opacity="0.6"/>
    <circle cx="140" cy="210" r="0.8" fill="white" opacity="0.8"/>
    <circle cx="190" cy="240" r="0.7" fill="white" opacity="0.7"/>
    <circle cx="240" cy="220" r="0.6" fill="white" opacity="0.6"/>
    <circle cx="290" cy="250" r="0.9" fill="white" opacity="0.8"/>
    <circle cx="340" cy="230" r="0.7" fill="white" opacity="0.7"/>
    <circle cx="60" cy="280" r="0.8" fill="white" opacity="0.6"/>
    <circle cx="110" cy="310" r="0.7" fill="white" opacity="0.7"/>
    <circle cx="160" cy="290" r="0.6" fill="white" opacity="0.8"/>
    <circle cx="210" cy="320" r="0.9" fill="white" opacity="0.6"/>
    <circle cx="260" cy="300" r="0.7" fill="white" opacity="0.7"/>
    <circle cx="310" cy="330" r="0.8" fill="white" opacity="0.8"/>
    <circle cx="360" cy="310" r="0.6" fill="white" opacity="0.7"/>
    <circle cx="25" cy="360" r="0.7" fill="white" opacity="0.6"/>
    <circle cx="75" cy="350" r="0.8" fill="white" opacity="0.7"/>
    <circle cx="125" cy="370" r="0.6" fill="white" opacity="0.8"/>
    <circle cx="175" cy="340" r="0.7" fill="white" opacity="0.6"/>
    <circle cx="225" cy="360" r="0.8" fill="white" opacity="0.7"/>
    <circle cx="275" cy="350" r="0.9" fill="white" opacity="0.8"/>
    <circle cx="325" cy="370" r="0.7" fill="white" opacity="0.7"/>
    <circle cx="375" cy="340" r="0.6" fill="white" opacity="0.6"/>
  </g>
  
  <!-- Central meditation figure silhouette -->
  <g id="meditating-figure" filter="url(#glow)">
    <path d="M200,170 
             C215,170 225,180 230,190 
             C235,180 245,170 260,170 
             C260,200 240,220 230,225 
             C220,220 200,200 200,170 Z" 
          fill="#CDE3F1" opacity="0.9"/>
    <circle cx="200" cy="150" r="15" fill="#CDE3F1" opacity="0.9"/>
    <rect x="195" y="165" width="10" height="30" fill="#CDE3F1" opacity="0.9"/>
    <path d="M170,240 C170,220 190,210 200,210 
             C210,210 230,220 230,240 
             C230,250 220,255 200,255 
             C180,255 170,250 170,240 Z" 
          fill="#CDE3F1" opacity="0.9"/>
    <path d="M160,270 C160,260 180,250 200,250 
             C220,250 240,260 240,270 
             C240,280 220,290 200,290 
             C180,290 160,280 160,270 Z" 
          fill="#CDE3F1" opacity="0.7"/>
  </g>
  
  <!-- Energy aura rings -->
  <g id="aura-rings" opacity="0.6">
    <ellipse cx="200" cy="200" rx="60" ry="90" fill="none" stroke="url(#energy-gradient)" stroke-width="2"/>
    <ellipse cx="200" cy="200" rx="80" ry="110" fill="none" stroke="url(#energy-gradient)" stroke-width="1.5"/>
    <ellipse cx="200" cy="200" rx="100" ry="130" fill="none" stroke="url(#energy-gradient)" stroke-width="1"/>
    <ellipse cx="200" cy="200" rx="120" ry="150" fill="none" stroke="url(#energy-gradient)" stroke-width="0.8"/>
  </g>
  
  <!-- Glowing orbs representing calm energies -->
  <g id="energy-orbs">
    <circle cx="200" cy="120" r="6" fill="#CDE3F1" opacity="0.9" filter="url(#glow)"/>
    <circle cx="250" cy="180" r="5" fill="#CDE3F1" opacity="0.7" filter="url(#glow)"/>
    <circle cx="150" cy="180" r="5" fill="#CDE3F1" opacity="0.7" filter="url(#glow)"/>
    <circle cx="230" cy="240" r="4" fill="#CDE3F1" opacity="0.6" filter="url(#glow)"/>
    <circle cx="170" cy="240" r="4" fill="#CDE3F1" opacity="0.6" filter="url(#glow)"/>
  </g>
  
  <!-- Album title area (transparent box for text) -->
  <rect x="50" y="310" width="300" height="60" rx="10" ry="10" fill="#062045" opacity="0.7"/>
</svg>