<?xml version="1.0" encoding="UTF-8"?>
<svg xmlns="http://www.w3.org/2000/svg" viewBox="0 0 400 400">
  <!-- Definitions for gradients and effects -->
  <defs>
    <!-- Quantum space background -->
    <linearGradient id="bg-gradient" x1="0%" y1="0%" x2="100%" y2="100%">
      <stop offset="0%" stop-color="#0E0430"/>
      <stop offset="50%" stop-color="#180C46"/>
      <stop offset="100%" stop-color="#2C1173"/>
    </linearGradient>
    
    <!-- Quantum energy gradient -->
    <radialGradient id="quantum-gradient" cx="50%" cy="50%" r="75%" fx="50%" fy="50%">
      <stop offset="0%" stop-color="#4DFFF3" stop-opacity="0.8"/>
      <stop offset="50%" stop-color="#21C7BE" stop-opacity="0.5"/>
      <stop offset="100%" stop-color="#199D95" stop-opacity="0.2"/>
    </radialGradient>
    
    <!-- Resonance wave gradient -->
    <linearGradient id="resonance-gradient" x1="0%" y1="0%" x2="100%" y2="0%">
      <stop offset="0%" stop-color="#FF3D9E" stop-opacity="0.9"/>
      <stop offset="50%" stop-color="#EA39B8" stop-opacity="0.7"/>
      <stop offset="100%" stop-color="#C431DC" stop-opacity="0.5"/>
    </linearGradient>
    
    <!-- Glow effect -->
    <filter id="glow">
      <feGaussianBlur stdDeviation="4" result="blur"/>
      <feComposite in="SourceGraphic" in2="blur" operator="over"/>
    </filter>
    
    <!-- Quantum particle effect -->
    <filter id="particle-effect">
      <feTurbulence type="fractalNoise" baseFrequency="0.05" numOctaves="3" result="noise"/>
      <feDisplacementMap in="SourceGraphic" in2="noise" scale="3" xChannelSelector="R" yChannelSelector="G"/>
    </filter>
  </defs>
  
  <!-- Background with quantum patterns -->
  <rect width="100%" height="100%" fill="url(#bg-gradient)"/>
  
  <!-- Quantum field representation -->
  <g id="quantum-field" opacity="0.25">
    <!-- Horizontal lines -->
    <line x1="0" y1="40" x2="400" y2="40" stroke="#4DFFF3" stroke-width="0.5"/>
    <line x1="0" y1="80" x2="400" y2="80" stroke="#4DFFF3" stroke-width="0.5"/>
    <line x1="0" y1="120" x2="400" y2="120" stroke="#4DFFF3" stroke-width="0.5"/>
    <line x1="0" y1="160" x2="400" y2="160" stroke="#4DFFF3" stroke-width="0.5"/>
    <line x1="0" y1="200" x2="400" y2="200" stroke="#4DFFF3" stroke-width="0.5"/>
    <line x1="0" y1="240" x2="400" y2="240" stroke="#4DFFF3" stroke-width="0.5"/>
    <line x1="0" y1="280" x2="400" y2="280" stroke="#4DFFF3" stroke-width="0.5"/>
    <line x1="0" y1="320" x2="400" y2="320" stroke="#4DFFF3" stroke-width="0.5"/>
    <line x1="0" y1="360" x2="400" y2="360" stroke="#4DFFF3" stroke-width="0.5"/>
    
    <!-- Vertical lines -->
    <line x1="40" y1="0" x2="40" y2="400" stroke="#4DFFF3" stroke-width="0.5"/>
    <line x1="80" y1="0" x2="80" y2="400" stroke="#4DFFF3" stroke-width="0.5"/>
    <line x1="120" y1="0" x2="120" y2="400" stroke="#4DFFF3" stroke-width="0.5"/>
    <line x1="160" y1="0" x2="160" y2="400" stroke="#4DFFF3" stroke-width="0.5"/>
    <line x1="200" y1="0" x2="200" y2="400" stroke="#4DFFF3" stroke-width="0.5"/>
    <line x1="240" y1="0" x2="240" y2="400" stroke="#4DFFF3" stroke-width="0.5"/>
    <line x1="280" y1="0" x2="280" y2="400" stroke="#4DFFF3" stroke-width="0.5"/>
    <line x1="320" y1="0" x2="320" y2="400" stroke="#4DFFF3" stroke-width="0.5"/>
    <line x1="360" y1="0" x2="360" y2="400" stroke="#4DFFF3" stroke-width="0.5"/>
  </g>
  
  <!-- Central quantum energy waves -->
  <g id="quantum-waves" filter="url(#glow)">
    <!-- Wave pattern 1 -->
    <path d="M40,200 C80,160 120,240 160,200 C200,160 240,240 280,200 C320,160 360,240 400,200" 
          fill="none" stroke="url(#resonance-gradient)" stroke-width="3" opacity="0.7"/>
    
    <!-- Wave pattern 2 -->
    <path d="M0,160 C40,120 80,200 120,160 C160,120 200,200 240,160 C280,120 320,200 360,160" 
          fill="none" stroke="url(#resonance-gradient)" stroke-width="3" opacity="0.7"/>
    
    <!-- Wave pattern 3 -->
    <path d="M0,240 C40,280 80,200 120,240 C160,280 200,200 240,240 C280,280 320,200 360,240" 
          fill="none" stroke="url(#resonance-gradient)" stroke-width="3" opacity="0.7"/>
  </g>
  
  <!-- Quantum energy field -->
  <circle cx="200" cy="200" r="100" fill="url(#quantum-gradient)" opacity="0.4" filter="url(#glow)"/>
  
  <!-- Quantum particles -->
  <g id="quantum-particles" filter="url(#particle-effect)">
    <!-- Inner particles -->
    <circle cx="170" cy="170" r="5" fill="#4DFFF3" opacity="0.9"/>
    <circle cx="210" cy="230" r="4" fill="#4DFFF3" opacity="0.9"/>
    <circle cx="180" cy="210" r="3" fill="#4DFFF3" opacity="0.9"/>
    <circle cx="230" cy="180" r="4" fill="#4DFFF3" opacity="0.9"/>
    <circle cx="160" cy="240" r="3" fill="#4DFFF3" opacity="0.9"/>
    
    <!-- Middle particles -->
    <circle cx="140" cy="200" r="4" fill="#FF3D9E" opacity="0.8"/>
    <circle cx="260" cy="200" r="4" fill="#FF3D9E" opacity="0.8"/>
    <circle cx="200" cy="140" r="4" fill="#FF3D9E" opacity="0.8"/>
    <circle cx="200" cy="260" r="4" fill="#FF3D9E" opacity="0.8"/>
    <circle cx="150" cy="150" r="3" fill="#FF3D9E" opacity="0.8"/>
    <circle cx="250" cy="250" r="3" fill="#FF3D9E" opacity="0.8"/>
    <circle cx="250" cy="150" r="3" fill="#FF3D9E" opacity="0.8"/>
    <circle cx="150" cy="250" r="3" fill="#FF3D9E" opacity="0.8"/>
    
    <!-- Outer particles -->
    <circle cx="120" cy="200" r="2" fill="#4DFFF3" opacity="0.7"/>
    <circle cx="280" cy="200" r="2" fill="#4DFFF3" opacity="0.7"/>
    <circle cx="200" cy="120" r="2" fill="#4DFFF3" opacity="0.7"/>
    <circle cx="200" cy="280" r="2" fill="#4DFFF3" opacity="0.7"/>
    <circle cx="130" cy="130" r="2" fill="#4DFFF3" opacity="0.7"/>
    <circle cx="270" cy="270" r="2" fill="#4DFFF3" opacity="0.7"/>
    <circle cx="270" cy="130" r="2" fill="#4DFFF3" opacity="0.7"/>
    <circle cx="130" cy="270" r="2" fill="#4DFFF3" opacity="0.7"/>
    <circle cx="100" cy="200" r="1" fill="#4DFFF3" opacity="0.6"/>
    <circle cx="300" cy="200" r="1" fill="#4DFFF3" opacity="0.6"/>
    <circle cx="200" cy="100" r="1" fill="#4DFFF3" opacity="0.6"/>
    <circle cx="200" cy="300" r="1" fill="#4DFFF3" opacity="0.6"/>
  </g>
  
  <!-- Quantum resonance pattern -->
  <g id="resonance-pattern" filter="url(#glow)">
    <!-- Central energy core -->
    <circle cx="200" cy="200" r="20" fill="#FF3D9E" opacity="0.9"/>
    
    <!-- Resonance rings -->
    <circle cx="200" cy="200" r="40" fill="none" stroke="#4DFFF3" stroke-width="2" opacity="0.8"/>
    <circle cx="200" cy="200" r="60" fill="none" stroke="#4DFFF3" stroke-width="1.5" opacity="0.7"/>
    <circle cx="200" cy="200" r="80" fill="none" stroke="#4DFFF3" stroke-width="1" opacity="0.6"/>
    <circle cx="200" cy="200" r="120" fill="none" stroke="#4DFFF3" stroke-width="0.5" opacity="0.5"/>
    
    <!-- Energy bands -->
    <path d="M120,200 A80,80 0 0,1 280,200" fill="none" stroke="#FF3D9E" stroke-width="3" opacity="0.7"/>
    <path d="M200,120 A80,80 0 0,1 200,280" fill="none" stroke="#FF3D9E" stroke-width="3" opacity="0.7"/>
  </g>
  
  <!-- Album title area (transparent box for text) -->
  <rect x="50" y="310" width="300" height="60" rx="10" ry="10" fill="#180C46" opacity="0.7"/>
</svg>