<svg xmlns="http://www.w3.org/2000/svg" viewBox="0 0 500 500">
  <!-- Background gradient and filters -->
  <defs>
    <linearGradient id="cosmicBackground" x1="0%" y1="0%" x2="100%" y2="100%">
      <stop offset="0%" stop-color="#011627" />
      <stop offset="50%" stop-color "#01253F" />
      <stop offset="100%" stop-color="#011627" />
    </linearGradient>
    <radialGradient id="quantumGlow" cx="50%" cy="50%" r="70%" fx="50%" fy="50%">
      <stop offset="0%" stop-color="#42A5F5" stop-opacity="0.5" />
      <stop offset="40%" stop-color="#2979FF" stop-opacity="0.3" />
      <stop offset="70%" stop-color="#00E5FF" stop-opacity="0.3" />
      <stop offset="100%" stop-color="#00B0FF" stop-opacity="0.1" />
    </radialGradient>
    <filter id="glow" x="-50%" y="-50%" width="200%" height="200%">
      <feGaussianBlur stdDeviation="10" result="blur" />
      <feComposite in="SourceGraphic" in2="blur" operator="over" />
    </filter>
    <linearGradient id="energyGradient" x1="0%" y1="0%" x2="100%" y2="100%">
      <stop offset="0%" stop-color="#18FFFF" />
      <stop offset="50%" stop-color="#00B8D4" />
      <stop offset="100%" stop-color="#0091EA" />
    </linearGradient>
  </defs>
  
  <!-- Deep cosmic background -->
  <rect width="500" height="500" fill="#011627" />
  
  <!-- Star field -->
  <g>
    <circle cx="50" cy="60" r="1" fill="white" opacity="0.8" />
    <circle cx="120" cy="40" r="1.5" fill="white" opacity="0.7" />
    <circle cx="200" cy="90" r="1" fill="white" opacity="0.9" />
    <circle cx="280" cy="30" r="1.2" fill="white" opacity="0.8" />
    <circle cx="350" cy="70" r="1" fill="white" opacity="0.7" />
    <circle cx="420" cy="90" r="1.4" fill="white" opacity="0.9" />
    <circle cx="470" cy="50" r="1" fill="white" opacity="0.8" />
    <circle cx="40" cy="150" r="1.3" fill="white" opacity="0.7" />
    <circle cx="90" cy="200" r="1" fill="white" opacity="0.9" />
    <circle cx="30" cy="280" r="1.2" fill="white" opacity="0.8" />
    <circle cx="70" cy="350" r="1" fill="white" opacity="0.7" />
    <circle cx="50" cy="420" r="1.4" fill="white" opacity="0.9" />
    <circle cx="90" cy="470" r="1" fill="white" opacity="0.8" />
    <circle cx="150" cy="450" r="1.3" fill="white" opacity="0.7" />
    <circle cx="200" cy="470" r="1" fill="white" opacity="0.9" />
    <circle cx="280" cy="450" r="1.2" fill="white" opacity="0.8" />
    <circle cx="350" cy="480" r="1" fill="white" opacity="0.7" />
    <circle cx="420" cy="450" r="1.4" fill="white" opacity="0.9" />
    <circle cx="470" cy="420" r="1" fill="white" opacity="0.8" />
    <circle cx="450" cy="350" r="1.3" fill="white" opacity="0.7" />
    <circle cx="480" cy="280" r="1" fill="white" opacity="0.9" />
    <circle cx="450" cy="200" r="1.2" fill="white" opacity="0.8" />
    <circle cx="480" cy="150" r="1" fill="white" opacity="0.7" />
    <!-- Additional stars -->
    <circle cx="150" cy="150" r="0.8" fill="white" opacity="0.6" />
    <circle cx="350" cy="150" r="0.8" fill="white" opacity="0.6" />
    <circle cx="150" cy="350" r="0.8" fill="white" opacity="0.6" />
    <circle cx="350" cy="350" r="0.8" fill="white" opacity="0.6" />
    <circle cx="250" cy="150" r="0.8" fill="white" opacity="0.6" />
    <circle cx="250" cy="350" r="0.8" fill="white" opacity="0.6" />
    <circle cx="150" cy="250" r="0.8" fill="white" opacity="0.6" />
    <circle cx="350" cy="250" r="0.8" fill="white" opacity="0.6" />
  </g>
  
  <!-- Quantum field effects -->
  <g transform="translate(250, 250)">
    <!-- Quantum energy central field -->
    <circle cx="0" cy="0" r="130" fill="url(#quantumGlow)" opacity="0.6" />
    
    <!-- Quantum particles -->
    <g>
      <circle cx="-80" cy="-60" r="3" fill="#4FC3F7" filter="url(#glow)" opacity="0.8" />
      <circle cx="70" cy="-80" r="4" fill="#29B6F6" filter="url(#glow)" opacity="0.8" />
      <circle cx="100" cy="20" r="3" fill="#03A9F4" filter="url(#glow)" opacity="0.8" />
      <circle cx="40" cy="90" r="5" fill="#039BE5" filter="url(#glow)" opacity="0.8" />
      <circle cx="-90" cy="50" r="4" fill="#0288D1" filter="url(#glow)" opacity="0.8" />
      <circle cx="-30" cy="-110" r="3" fill="#0277BD" filter="url(#glow)" opacity="0.8" />
      <circle cx="120" cy="-40" r="2" fill="#01579B" filter="url(#glow)" opacity="0.8" />
      <circle cx="-120" cy="-10" r="3" fill="#80D8FF" filter="url(#glow)" opacity="0.8" />
      <circle cx="-60" cy="100" r="4" fill="#40C4FF" filter="url(#glow)" opacity="0.8" />
      <circle cx="0" cy="-90" r="5" fill="#00B0FF" filter="url(#glow)" opacity="0.8" />
      <circle cx="0" cy="120" r="3" fill="#0091EA" filter="url(#glow)" opacity="0.8" />
    </g>
    
    <!-- Quantum entanglement lines -->
    <g opacity="0.6">
      <path d="M -80,-60 L 70,-80" stroke="url(#energyGradient)" stroke-width="0.5" />
      <path d="M 70,-80 L 100,20" stroke="url(#energyGradient)" stroke-width="0.5" />
      <path d="M 100,20 L 40,90" stroke="url(#energyGradient)" stroke-width="0.5" />
      <path d="M 40,90 L -90,50" stroke="url(#energyGradient)" stroke-width="0.5" />
      <path d="M -90,50 L -80,-60" stroke="url(#energyGradient)" stroke-width="0.5" />
      <path d="M -80,-60 L -30,-110" stroke="url(#energyGradient)" stroke-width="0.5" />
      <path d="M -30,-110 L 120,-40" stroke="url(#energyGradient)" stroke-width="0.5" />
      <path d="M 120,-40 L -120,-10" stroke="url(#energyGradient)" stroke-width="0.5" />
      <path d="M -120,-10 L -60,100" stroke="url(#energyGradient)" stroke-width="0.5" />
      <path d="M -60,100 L 0,-90" stroke="url(#energyGradient)" stroke-width="0.5" />
      <path d="M 0,-90 L 0,120" stroke="url(#energyGradient)" stroke-width="0.5" />
      <path d="M 0,120 L -80,-60" stroke="url(#energyGradient)" stroke-width="0.5" />
      <path d="M 70,-80 L -90,50" stroke="url(#energyGradient)" stroke-width="0.5" />
      <path d="M 100,20 L -60,100" stroke="url(#energyGradient)" stroke-width="0.5" />
      <path d="M -30,-110 L 0,120" stroke="url(#energyGradient)" stroke-width="0.5" />
    </g>
    
    <!-- Quantum wave pattern -->
    <g opacity="0.5" fill="none" stroke="#40C4FF">
      <path d="M -150,0 Q -125,20 -100,0 Q -75,-20 -50,0 Q -25,20 0,0 Q 25,-20 50,0 Q 75,20 100,0 Q 125,-20 150,0" stroke-width="1" />
      <path d="M -150,30 Q -125,50 -100,30 Q -75,10 -50,30 Q -25,50 0,30 Q 25,10 50,30 Q 75,50 100,30 Q 125,10 150,30" stroke-width="0.7" />
      <path d="M -150,-30 Q -125,-10 -100,-30 Q -75,-50 -50,-30 Q -25,-10 0,-30 Q 25,-50 50,-30 Q 75,-10 100,-30 Q 125,-50 150,-30" stroke-width="0.7" />
    </g>
    
    <!-- Sacred geometry elements -->
    <g opacity="0.4">
      <!-- Fibonacci spiral (simplified) -->
      <path d="M 0,0 Q 5,5 10,0 Q 15,-10 0,-15 Q -20,-5 -15,15 Q 5,30 30,15 Q 40,-15 10,-40 Q -30,-35 -50,5 Q -35,50 15,60 Q 70,45 80,-15 Q 50,-70 -20,-75" fill="none" stroke="#81D4FA" stroke-width="0.5" />
    </g>
    
    <!-- Core quantum energy -->
    <circle cx="0" cy="0" r="25" fill="#0091EA" filter="url(#glow)" opacity="0.8" />
  </g>
  
  <!-- Abstract quantum patterns and wave interference -->
  <g opacity="0.3">
    <path d="M 0,250 Q 125,200 250,250 T 500,250" fill="none" stroke="#B3E5FC" stroke-width="0.5" />
    <path d="M 0,270 Q 125,320 250,270 T 500,270" fill="none" stroke="#B3E5FC" stroke-width="0.5" />
    <path d="M 0,230 Q 125,180 250,230 T 500,230" fill="none" stroke="#B3E5FC" stroke-width="0.5" />
    <path d="M 0,290 Q 125,340 250,290 T 500,290" fill="none" stroke="#B3E5FC" stroke-width="0.5" />
    <path d="M 0,210 Q 125,160 250,210 T 500,210" fill="none" stroke="#B3E5FC" stroke-width="0.5" />
  </g>
  
  <!-- Text label for album -->
  <text x="250" y="410" font-family="Arial, sans-serif" font-size="24" fill="#E1F5FE" text-anchor="middle" font-weight="bold">Quantum Resonance</text>
  <text x="250" y="440" font-family="Arial, sans-serif" font-size="18" fill="#81D4FA" text-anchor="middle">Universal Constants</text>
</svg>