<?xml version="1.0" encoding="UTF-8"?>
<svg xmlns="http://www.w3.org/2000/svg" viewBox="0 0 400 400">
  <!-- Definitions -->
  <defs>
    <!-- Third eye chakra gradient -->
    <radialGradient id="third-eye-bg" cx="50%" cy="50%" r="70%" fx="50%" fy="50%">
      <stop offset="0%" stop-color="#A77BF3" stop-opacity="0.9"/>
      <stop offset="50%" stop-color="#7A56C7" stop-opacity="0.6"/>
      <stop offset="100%" stop-color="#4B0082" stop-opacity="0.3"/>
    </radialGradient>
    
    <!-- Mystic cosmic background -->
    <linearGradient id="cosmic-bg" x1="0%" y1="0%" x2="100%" y2="100%">
      <stop offset="0%" stop-color="#030322"/>
      <stop offset="50%" stop-color="#0B0B32"/>
      <stop offset="100%" stop-color="#130F40"/>
    </linearGradient>
    
    <!-- Energy pulse gradient -->
    <linearGradient id="energy-pulse" x1="0%" y1="0%" x2="100%" y2="0%">
      <stop offset="0%" stop-color="#A77BF3" stop-opacity="0.8"/>
      <stop offset="50%" stop-color="#7A56C7" stop-opacity="0.4"/>
      <stop offset="100%" stop-color="#4B0082" stop-opacity="0"/>
    </linearGradient>
    
    <!-- Glow effect -->
    <filter id="glow">
      <feGaussianBlur stdDeviation="6" result="blur"/>
      <feComposite in="SourceGraphic" in2="blur" operator="over"/>
    </filter>
    
    <!-- Cosmic star flare -->
    <filter id="star-flare">
      <feTurbulence type="fractalNoise" baseFrequency="0.1" numOctaves="2" result="noise"/>
      <feDisplacementMap in="SourceGraphic" in2="noise" scale="1" xChannelSelector="R" yChannelSelector="G"/>
    </filter>
  </defs>
  
  <!-- Background -->
  <rect width="400" height="400" fill="url(#cosmic-bg)"/>
  
  <!-- Cosmic starfield -->
  <g id="stars" filter="url(#star-flare)">
    <circle cx="20" cy="30" r="0.6" fill="white" opacity="0.6"/>
    <circle cx="60" cy="50" r="0.8" fill="white" opacity="0.5"/>
    <circle cx="100" cy="20" r="0.5" fill="white" opacity="0.7"/>
    <circle cx="140" cy="60" r="0.7" fill="white" opacity="0.5"/>
    <circle cx="180" cy="30" r="0.6" fill="white" opacity="0.6"/>
    <circle cx="220" cy="50" r="0.8" fill="white" opacity="0.5"/>
    <circle cx="260" cy="20" r="0.5" fill="white" opacity="0.7"/>
    <circle cx="300" cy="60" r="0.7" fill="white" opacity="0.5"/>
    <circle cx="340" cy="30" r="0.6" fill="white" opacity="0.6"/>
    <circle cx="380" cy="50" r="0.8" fill="white" opacity="0.5"/>
    <circle cx="40" cy="100" r="0.6" fill="white" opacity="0.6"/>
    <circle cx="80" cy="80" r="0.5" fill="white" opacity="0.7"/>
    <circle cx="120" cy="110" r="0.7" fill="white" opacity="0.5"/>
    <circle cx="160" cy="90" r="0.6" fill="white" opacity="0.6"/>
    <circle cx="200" cy="110" r="0.8" fill="white" opacity="0.5"/>
    <circle cx="240" cy="80" r="0.5" fill="white" opacity="0.7"/>
    <circle cx="280" cy="110" r="0.7" fill="white" opacity="0.5"/>
    <circle cx="320" cy="90" r="0.6" fill="white" opacity="0.6"/>
    <circle cx="360" cy="110" r="0.8" fill="white" opacity="0.5"/>
    <circle cx="20" cy="150" r="0.5" fill="white" opacity="0.7"/>
    <circle cx="60" cy="170" r="0.7" fill="white" opacity="0.5"/>
    <circle cx="100" cy="140" r="0.6" fill="white" opacity="0.6"/>
    <circle cx="140" cy="170" r="0.8" fill="white" opacity="0.5"/>
    <circle cx="260" cy="170" r="0.7" fill="white" opacity="0.5"/>
    <circle cx="300" cy="140" r="0.6" fill="white" opacity="0.6"/>
    <circle cx="340" cy="170" r="0.8" fill="white" opacity="0.5"/>
    <circle cx="380" cy="140" r="0.5" fill="white" opacity="0.7"/>
    <circle cx="20" cy="220" r="0.7" fill="white" opacity="0.5"/>
    <circle cx="60" cy="240" r="0.6" fill="white" opacity="0.6"/>
    <circle cx="100" cy="230" r="0.8" fill="white" opacity="0.5"/>
    <circle cx="140" cy="250" r="0.5" fill="white" opacity="0.7"/>
    <circle cx="260" cy="250" r="0.5" fill="white" opacity="0.7"/>
    <circle cx="300" cy="230" r="0.8" fill="white" opacity="0.5"/>
    <circle cx="340" cy="240" r="0.6" fill="white" opacity="0.6"/>
    <circle cx="380" cy="230" r="0.7" fill="white" opacity="0.5"/>
    <circle cx="40" cy="320" r="0.8" fill="white" opacity="0.5"/>
    <circle cx="80" cy="300" r="0.5" fill="white" opacity="0.7"/>
    <circle cx="120" cy="330" r="0.7" fill="white" opacity="0.5"/>
    <circle cx="160" cy="310" r="0.6" fill="white" opacity="0.6"/>
    <circle cx="200" cy="330" r="0.8" fill="white" opacity="0.5"/>
    <circle cx="240" cy="300" r="0.5" fill="white" opacity="0.7"/>
    <circle cx="280" cy="330" r="0.7" fill="white" opacity="0.5"/>
    <circle cx="320" cy="310" r="0.6" fill="white" opacity="0.6"/>
    <circle cx="360" cy="330" r="0.8" fill="white" opacity="0.5"/>
    <circle cx="20" cy="370" r="0.5" fill="white" opacity="0.7"/>
    <circle cx="60" cy="360" r="0.7" fill="white" opacity="0.5"/>
    <circle cx="100" cy="380" r="0.6" fill="white" opacity="0.6"/>
    <circle cx="140" cy="350" r="0.8" fill="white" opacity="0.5"/>
    <circle cx="180" cy="370" r="0.5" fill="white" opacity="0.7"/>
    <circle cx="220" cy="350" r="0.7" fill="white" opacity="0.5"/>
    <circle cx="260" cy="380" r="0.6" fill="white" opacity="0.6"/>
    <circle cx="300" cy="350" r="0.8" fill="white" opacity="0.5"/>
    <circle cx="340" cy="370" r="0.5" fill="white" opacity="0.7"/>
    <circle cx="380" cy="350" r="0.7" fill="white" opacity="0.5"/>
  </g>
  
  <!-- Mystical energy backdrop -->
  <circle cx="200" cy="200" r="110" fill="#4B0082" opacity="0.15" filter="url(#glow)"/>
  
  <!-- Third Eye Chakra (Ajna) Symbol -->
  <g filter="url(#glow)">
    <!-- Central energy core -->
    <circle cx="200" cy="200" r="60" fill="url(#third-eye-bg)" opacity="0.8"/>
    
    <!-- Third eye traditional symbol -->
    <g>
      <path d="M150,200 C150,170 170,150 200,150 C230,150 250,170 250,200" 
            stroke="#7A56C7" 
            stroke-width="2" 
            fill="none" 
            opacity="0.9"/>
      <path d="M250,200 C250,230 230,250 200,250 C170,250 150,230 150,200" 
            stroke="#7A56C7" 
            stroke-width="2" 
            fill="none" 
            opacity="0.9"/>
      <circle cx="200" cy="200" r="15" fill="#7A56C7" opacity="0.9"/>
    </g>
    
    <!-- Two-petaled lotus (traditional third eye chakra symbol) -->
    <path d="M175,175 C165,185 165,215 175,225" 
          stroke="#7A56C7" 
          stroke-width="2" 
          fill="none" 
          opacity="0.9"/>
    <path d="M225,175 C235,185 235,215 225,225" 
          stroke="#7A56C7" 
          stroke-width="2" 
          fill="none" 
          opacity="0.9"/>
    
    <!-- 852Hz frequency visualization - sine waves -->
    <path d="M140,200 C150,185 160,215 170,200 C180,185 190,215 200,200 C210,185 220,215 230,200 C240,185 250,215 260,200" 
          stroke="#A77BF3" 
          stroke-width="3" 
          fill="none" 
          opacity="0.8"/>
    
    <!-- Frequency number -->
    <text x="200" y="260" 
          font-family="Arial" 
          font-size="18" 
          fill="#A77BF3" 
          text-anchor="middle" 
          opacity="0.9"
          filter="url(#glow)">
      852 Hz
    </text>
  </g>
  
  <!-- Insight energy rays -->
  <g opacity="0.5">
    <line x1="200" y1="120" x2="200" y2="80" stroke="url(#energy-pulse)" stroke-width="2"/>
    <line x1="240" y1="140" x2="270" y2="110" stroke="url(#energy-pulse)" stroke-width="2"/>
    <line x1="260" y1="180" x2="300" y2="180" stroke="url(#energy-pulse)" stroke-width="2"/>
    <line x1="240" y1="220" x2="270" y2="250" stroke="url(#energy-pulse)" stroke-width="2"/>
    <line x1="200" y1="240" x2="200" y2="280" stroke="url(#energy-pulse)" stroke-width="2"/>
    <line x1="160" y1="220" x2="130" y2="250" stroke="url(#energy-pulse)" stroke-width="2"/>
    <line x1="140" y1="180" x2="100" y2="180" stroke="url(#energy-pulse)" stroke-width="2"/>
    <line x1="160" y1="140" x2="130" y2="110" stroke="url(#energy-pulse)" stroke-width="2"/>
  </g>
  
  <!-- Small galactic energy particles -->
  <g filter="url(#glow)">
    <circle cx="200" cy="80" r="2" fill="#A77BF3" opacity="0.8"/>
    <circle cx="270" cy="110" r="2" fill="#A77BF3" opacity="0.8"/>
    <circle cx="300" cy="180" r="2" fill="#A77BF3" opacity="0.8"/>
    <circle cx="270" cy="250" r="2" fill="#A77BF3" opacity="0.8"/>
    <circle cx="200" cy="280" r="2" fill="#A77BF3" opacity="0.8"/>
    <circle cx="130" cy="250" r="2" fill="#A77BF3" opacity="0.8"/>
    <circle cx="100" cy="180" r="2" fill="#A77BF3" opacity="0.8"/>
    <circle cx="130" cy="110" r="2" fill="#A77BF3" opacity="0.8"/>
    
    <!-- Inner intuition particles -->
    <circle cx="180" cy="180" r="1" fill="#E0B0FF" opacity="0.9"/>
    <circle cx="220" cy="180" r="1" fill="#E0B0FF" opacity="0.9"/>
    <circle cx="180" cy="220" r="1" fill="#E0B0FF" opacity="0.9"/>
    <circle cx="220" cy="220" r="1" fill="#E0B0FF" opacity="0.9"/>
    <circle cx="200" cy="170" r="1" fill="#E0B0FF" opacity="0.9"/>
    <circle cx="200" cy="230" r="1" fill="#E0B0FF" opacity="0.9"/>
    <circle cx="170" cy="200" r="1" fill="#E0B0FF" opacity="0.9"/>
    <circle cx="230" cy="200" r="1" fill="#E0B0FF" opacity="0.9"/>
  </g>
  
  <!-- Third Eye Vision Effect -->
  <g opacity="0.3">
    <ellipse cx="200" cy="200" rx="95" ry="40" fill="none" stroke="#A77BF3" stroke-width="0.5"/>
    <ellipse cx="200" cy="200" rx="85" ry="35" fill="none" stroke="#A77BF3" stroke-width="0.5"/>
    <ellipse cx="200" cy="200" rx="75" ry="30" fill="none" stroke="#A77BF3" stroke-width="0.5"/>
    <ellipse cx="200" cy="200" rx="65" ry="25" fill="none" stroke="#A77BF3" stroke-width="0.5"/>
  </g>
</svg>