<svg xmlns="http://www.w3.org/2000/svg" width="400" height="400" viewBox="0 0 400 400">
  <defs>
    <!-- Nebula gradients -->
    <radialGradient id="nebula-gradient" cx="50%" cy="50%" r="50%" fx="50%" fy="50%">
      <stop offset="0%" stop-color="#C724B1" stop-opacity="0.4"/>
      <stop offset="40%" stop-color="#4B3CFA" stop-opacity="0.6"/>
      <stop offset="70%" stop-color="#0A174E" stop-opacity="0.7"/>
      <stop offset="100%" stop-color="#070B34" stop-opacity="0.9"/>
    </radialGradient>
    
    <!-- Cushion gradients -->
    <linearGradient id="cushion-top-gradient" x1="0%" y1="0%" x2="100%" y2="100%">
      <stop offset="0%" stop-color="#5F4B8B"/>
      <stop offset="50%" stop-color="#4A3A6B"/>
      <stop offset="100%" stop-color="#42356B"/>
    </linearGradient>
    
    <linearGradient id="cushion-side-gradient" x1="0%" y1="0%" x2="100%" y2="100%">
      <stop offset="0%" stop-color="#3D2C5A"/>
      <stop offset="100%" stop-color="#2A1E44"/>
    </linearGradient>
    
    <!-- Star glow filter -->
    <filter id="star-glow" x="-50%" y="-50%" width="200%" height="200%">
      <feGaussianBlur in="SourceGraphic" stdDeviation="2" result="blur"/>
      <feColorMatrix in="blur" type="matrix" values="1 0 0 0 1  0 1 0 0 1  0 0 1 0 1  0 0 0 18 -7" result="glow"/>
      <feComposite in="SourceGraphic" in2="glow" operator="over"/>
    </filter>
    
    <!-- Nebula pattern -->
    <pattern id="nebula-pattern" x="0" y="0" width="300" height="300" patternUnits="userSpaceOnUse">
      <rect width="300" height="300" fill="#1A0F36"/>
      
      <!-- Nebula dust clouds -->
      <ellipse cx="150" cy="150" rx="120" ry="100" fill="#4B3CFA" opacity="0.2"/>
      <ellipse cx="130" cy="170" rx="90" ry="70" fill="#C724B1" opacity="0.15"/>
      <ellipse cx="170" cy="130" rx="100" ry="80" fill="#5C1B9A" opacity="0.2"/>
      
      <!-- Stars -->
      <g filter="url(#star-glow)">
        <circle cx="50" cy="50" r="0.8" fill="white"/>
        <circle cx="120" cy="70" r="0.6" fill="white"/>
        <circle cx="200" cy="90" r="1" fill="white"/>
        <circle cx="240" cy="150" r="0.7" fill="white"/>
        <circle cx="80" cy="200" r="0.9" fill="white"/>
        <circle cx="150" cy="250" r="0.6" fill="white"/>
        <circle cx="220" cy="220" r="0.8" fill="white"/>
      </g>
    </pattern>
  </defs>

  <!-- Background -->
  <rect width="400" height="400" fill="url(#nebula-gradient)"/>
  
  <!-- Meditation Cushion -->
  <g transform="translate(200, 200)">
    <!-- Cushion bottom shadow -->
    <ellipse cx="0" cy="15" rx="130" ry="40" fill="rgba(0,0,0,0.3)" opacity="0.5"/>
    
    <!-- Cushion side -->
    <path d="M-120 0 Q-130 40 0 60 Q130 40 120 0 Z" fill="url(#cushion-side-gradient)"/>
    
    <!-- Cushion top -->
    <ellipse cx="0" cy="0" rx="120" ry="45" fill="url(#cushion-top-gradient)"/>
    
    <!-- Nebula pattern on top -->
    <ellipse cx="0" cy="0" rx="115" ry="40" fill="url(#nebula-pattern)"/>
    
    <!-- Center depression -->
    <ellipse cx="0" cy="0" rx="40" ry="15" fill="#2A1E44" opacity="0.6"/>
    <ellipse cx="0" cy="-2" rx="38" ry="13" fill="#382A5F" opacity="0.4"/>
    
    <!-- Button in the center -->
    <circle cx="0" cy="0" r="8" fill="#332255" stroke="#5F4B8B" stroke-width="1"/>
    <circle cx="0" cy="0" r="3" fill="#271B44"/>
    
    <!-- Cosmic symbol embroidery -->
    <g transform="translate(0, 0) scale(0.8)" opacity="0.8">
      <!-- Star symbol -->
      <path d="M0 -25L6 -8L24 -8L10 3L15 20L0 10L-15 20L-10 3L-24 -8L-6 -8Z" 
            fill="none" stroke="#BD9DE7" stroke-width="1" opacity="0.7"/>
      
      <!-- Circle around star -->
      <circle cx="0" cy="0" r="28" fill="none" stroke="#BD9DE7" stroke-width="1" opacity="0.7"/>
    </g>
    
    <!-- Fabric texture details -->
    <path d="M-80 -15 Q-40 -25 0 -25 Q40 -25 80 -15" fill="none" stroke="#5F4B8B" stroke-width="0.5" opacity="0.3"/>
    <path d="M-60 5 Q-30 0 0 0 Q30 0 60 5" fill="none" stroke="#5F4B8B" stroke-width="0.5" opacity="0.3"/>
    
    <!-- Handle on the side -->
    <path d="M100 -5 Q110 -15 120 -5" fill="none" stroke="#4A3A6B" stroke-width="3"/>
  </g>
  
  <!-- Product label -->
  <text x="200" y="380" text-anchor="middle" font-family="Arial, sans-serif" font-size="14" fill="#BD9DE7" font-weight="bold">
    Nebula Meditation Cushion
  </text>
</svg>