<svg xmlns="http://www.w3.org/2000/svg" width="400" height="400" viewBox="0 0 400 400">
  <defs>
    <!-- Cosmic background gradient -->
    <radialGradient id="cosmic-gradient" cx="50%" cy="50%" r="50%" fx="50%" fy="50%">
      <stop offset="0%" stop-color="#3A1C71" stop-opacity="0.7"/>
      <stop offset="50%" stop-color="#D76D77" stop-opacity="0.5"/>
      <stop offset="100%" stop-color="#140E2F" stop-opacity="0.8"/>
    </radialGradient>
    
    <!-- Card gradient -->
    <linearGradient id="card-gradient" x1="0%" y1="0%" x2="100%" y2="100%">
      <stop offset="0%" stop-color="#1A1A3A"/>
      <stop offset="100%" stop-color="#2A1A4A"/>
    </linearGradient>
    
    <!-- Star glow filter -->
    <filter id="star-glow" x="-50%" y="-50%" width="200%" height="200%">
      <feGaussianBlur in="SourceGraphic" stdDeviation="5" result="blur"/>
      <feColorMatrix in="blur" type="matrix" values="1 0 0 0 1  0 1 0 0 1  0 0 1 0 1  0 0 0 18 -7" result="glow"/>
      <feComposite in="SourceGraphic" in2="glow" operator="over"/>
    </filter>
    
    <!-- Card box -->
    <pattern id="card-pattern" x="0" y="0" width="60" height="60" patternUnits="userSpaceOnUse">
      <rect width="60" height="60" fill="#150E3A"/>
      <path d="M0 0L60 60M60 0L0 60" stroke="#462B8A" stroke-width="0.5" opacity="0.3"/>
    </pattern>
  </defs>

  <!-- Background -->
  <rect width="400" height="400" fill="url(#cosmic-gradient)"/>
  
  <!-- Oracle deck box -->
  <g transform="translate(200, 200) rotate(-5)">
    <!-- Box back -->
    <rect x="-100" y="-140" width="200" height="280" rx="10" ry="10" fill="url(#card-pattern)" stroke="#8370D8" stroke-width="2"/>
    
    <!-- Box top decoration -->
    <rect x="-90" y="-130" width="180" height="30" rx="5" ry="5" fill="#241259" stroke="#8370D8" stroke-width="1"/>
    <text x="0" y="-110" text-anchor="middle" font-family="Arial, sans-serif" font-size="14" fill="#D8C5FF" font-weight="bold">STARSEED</text>
    
    <!-- Oracle cards fanned out -->
    <g transform="translate(0, 20)">
      <!-- Card 1 -->
      <rect x="-70" y="-100" width="110" height="170" rx="5" ry="5" fill="#241259" stroke="#8370D8" stroke-width="1" transform="rotate(-10)"/>
      
      <!-- Card 2 -->
      <rect x="-60" y="-90" width="110" height="170" rx="5" ry="5" fill="#2D1B5C" stroke="#8370D8" stroke-width="1" transform="rotate(-5)"/>
      
      <!-- Main card with cosmic imagery -->
      <g transform="rotate(0)">
        <rect x="-50" y="-80" width="110" height="170" rx="5" ry="5" fill="#241259" stroke="#8370D8" stroke-width="1.5"/>
        
        <!-- Card cosmic illustration -->
        <circle cx="5" cy="5" r="45" fill="#140E2F" stroke="#6B4DD8" stroke-width="1"/>
        
        <!-- Constellation -->
        <g filter="url(#star-glow)">
          <circle cx="-15" cy="-25" r="1.2" fill="white"/>
          <circle cx="15" cy="-15" r="1.5" fill="white"/>
          <circle cx="25" cy="10" r="1" fill="white"/>
          <circle cx="10" cy="30" r="1.3" fill="white"/>
          <circle cx="-20" cy="20" r="1.1" fill="white"/>
          
          <!-- Connect constellation stars -->
          <path d="M-15 -25L15 -15L25 10L10 30L-20 20L-15 -25" stroke="#BDB0FF" stroke-width="0.5" fill="none" opacity="0.6"/>
        </g>
        
        <!-- Central starseed symbol -->
        <g transform="translate(5, 5)">
          <path d="M0 -15L3 -5L12 -5L5 2L8 12L0 6L-8 12L-5 2L-12 -5L-3 -5Z" fill="#D76D77" opacity="0.8"/>
          <circle cx="0" cy="0" r="5" fill="#BDB0FF" opacity="0.7"/>
        </g>
      </g>
      
      <!-- Card 4 -->
      <rect x="-40" y="-70" width="110" height="170" rx="5" ry="5" fill="#341C63" stroke="#8370D8" stroke-width="1" transform="rotate(5)"/>
      
      <!-- Card 5 -->
      <rect x="-30" y="-60" width="110" height="170" rx="5" ry="5" fill="#3C2069" stroke="#8370D8" stroke-width="1" transform="rotate(10)"/>
    </g>
  </g>
  
  <!-- Cosmic elements around the cards -->
  <g filter="url(#star-glow)" opacity="0.8">
    <!-- Stars -->
    <circle cx="50" cy="50" r="1.5" fill="white"/>
    <circle cx="80" cy="120" r="1" fill="white"/>
    <circle cx="330" cy="70" r="1.2" fill="white"/>
    <circle cx="280" cy="320" r="1" fill="white"/>
    <circle cx="120" cy="280" r="1.3" fill="white"/>
    
    <!-- Nebula wisps -->
    <path d="M50 150 Q100 180 150 150 Q200 120 250 150" stroke="#D76D77" stroke-width="1" fill="none" opacity="0.3"/>
    <path d="M300 100 Q250 150 300 200 Q350 250 300 300" stroke="#8970FF" stroke-width="1" fill="none" opacity="0.3"/>
  </g>
  
  <!-- Product title -->
  <text x="200" y="380" text-anchor="middle" font-family="Arial, sans-serif" font-size="14" fill="#D8C5FF" font-weight="bold">
    Starseed Oracle Deck
  </text>
</svg>