<svg xmlns="http://www.w3.org/2000/svg" width="400" height="400" viewBox="0 0 400 400">
  <defs>
    <!-- Cosmic background gradient -->
    <radialGradient id="cosmic-bg" cx="50%" cy="50%" r="50%" fx="50%" fy="50%">
      <stop offset="0%" stop-color="#1A1A3A" stop-opacity="0.7"/>
      <stop offset="100%" stop-color="#0A0A1A" stop-opacity="0.9"/>
    </radialGradient>
    
    <!-- Crystal glows -->
    <filter id="amethyst-glow" x="-50%" y="-50%" width="200%" height="200%">
      <feGaussianBlur in="SourceGraphic" stdDeviation="2" result="blur"/>
      <feColorMatrix in="blur" type="matrix" values="0.5 0 0 0 0.4  0 0 0 0 0.2  0.5 0 0 0 0.5  0 0 0 18 -7" result="glow"/>
      <feComposite in="SourceGraphic" in2="glow" operator="over"/>
    </filter>
    
    <filter id="citrine-glow" x="-50%" y="-50%" width="200%" height="200%">
      <feGaussianBlur in="SourceGraphic" stdDeviation="2" result="blur"/>
      <feColorMatrix in="blur" type="matrix" values="0.8 0 0 0 0.4  0.5 0 0 0 0.3  0 0 0 0 0  0 0 0 18 -7" result="glow"/>
      <feComposite in="SourceGraphic" in2="glow" operator="over"/>
    </filter>
    
    <filter id="aquamarine-glow" x="-50%" y="-50%" width="200%" height="200%">
      <feGaussianBlur in="SourceGraphic" stdDeviation="2" result="blur"/>
      <feColorMatrix in="blur" type="matrix" values="0 0 0 0 0.1  0.2 0 0 0 0.4  0.5 0 0 0 0.6  0 0 0 18 -7" result="glow"/>
      <feComposite in="SourceGraphic" in2="glow" operator="over"/>
    </filter>
    
    <filter id="rose-quartz-glow" x="-50%" y="-50%" width="200%" height="200%">
      <feGaussianBlur in="SourceGraphic" stdDeviation="2" result="blur"/>
      <feColorMatrix in="blur" type="matrix" values="0.7 0 0 0 0.4  0.1 0 0 0 0.1  0.2 0 0 0 0.2  0 0 0 18 -7" result="glow"/>
      <feComposite in="SourceGraphic" in2="glow" operator="over"/>
    </filter>
    
    <!-- Zodiac circle pattern -->
    <pattern id="zodiac-pattern" x="0" y="0" width="400" height="400" patternUnits="userSpaceOnUse">
      <circle cx="200" cy="200" r="150" fill="none" stroke="#444477" stroke-width="0.5" opacity="0.3"/>
      <circle cx="200" cy="200" r="120" fill="none" stroke="#444477" stroke-width="0.5" opacity="0.3"/>
      <path d="M200 50 L200 350 M50 200 L350 200 M85 85 L315 315 M85 315 L315 85" 
            fill="none" stroke="#444477" stroke-width="0.3" opacity="0.2"/>
    </pattern>
  </defs>

  <!-- Background -->
  <rect width="400" height="400" fill="url(#cosmic-bg)"/>
  <rect width="400" height="400" fill="url(#zodiac-pattern)"/>
  
  <!-- Decorative circular frame -->
  <circle cx="200" cy="200" r="180" fill="none" stroke="#7777AA" stroke-width="1" opacity="0.5"/>
  <circle cx="200" cy="200" r="170" fill="none" stroke="#7777AA" stroke-width="0.5" opacity="0.3"/>
  
  <!-- Display box -->
  <rect x="120" y="100" width="160" height="240" rx="10" ry="10" fill="#1A1A2A" stroke="#7777AA" stroke-width="1"/>
  <rect x="125" y="105" width="150" height="230" rx="5" ry="5" fill="#14142A" stroke="#7777AA" stroke-width="0.5" opacity="0.7"/>
  
  <!-- Zodiac star sign circle -->
  <circle cx="200" cy="70" r="25" fill="#1A1A4A" stroke="#7777AA" stroke-width="1"/>
  <text x="200" y="75" text-anchor="middle" font-family="Arial, sans-serif" font-size="10" fill="#AAAAFF" font-weight="bold">ZODIAC</text>
  
  <!-- Crystal display inside box -->
  <g transform="translate(200, 220)">
    <!-- Crystal formation base -->
    <ellipse cx="0" cy="20" rx="60" ry="15" fill="#14142A" stroke="#444477" stroke-width="0.5"/>
    
    <!-- Crystals arranged in astrological formation -->
    <!-- Amethyst (Aquarius) -->
    <g filter="url(#amethyst-glow)" transform="translate(-30, -30)">
      <path d="M0 -20 L8 15 L-8 15 Z" fill="#9966CC" opacity="0.9" stroke="#CCAAFF" stroke-width="0.5"/>
      <path d="M0 -20 L-3 -5 L3 -5 Z" fill="#CCAAFF" opacity="0.7"/>
    </g>
    
    <!-- Citrine (Leo) -->
    <g filter="url(#citrine-glow)" transform="translate(30, -40)">
      <path d="M0 -15 L7 10 L-7 10 Z" fill="#E6C200" opacity="0.9" stroke="#FFE666" stroke-width="0.5"/>
      <path d="M0 -15 L-2 -5 L2 -5 Z" fill="#FFE666" opacity="0.7"/>
    </g>
    
    <!-- Aquamarine (Pisces) -->
    <g filter="url(#aquamarine-glow)" transform="translate(-40, 0)">
      <path d="M0 -18 L6 12 L-6 12 Z" fill="#7FFFD4" opacity="0.8" stroke="#AAFFEE" stroke-width="0.5"/>
      <path d="M0 -18 L-2 -5 L2 -5 Z" fill="#AAFFEE" opacity="0.6"/>
    </g>
    
    <!-- Rose Quartz (Taurus) -->
    <g filter="url(#rose-quartz-glow)" transform="translate(40, 5)">
      <path d="M0 -16 L5 10 L-5 10 Z" fill="#F7CAC9" opacity="0.9" stroke="#FDE2E2" stroke-width="0.5"/>
      <path d="M0 -16 L-2 -5 L2 -5 Z" fill="#FDE2E2" opacity="0.7"/>
    </g>
    
    <!-- Clear Quartz (Center) -->
    <g filter="url(#aquamarine-glow)" transform="translate(0, -15)">
      <path d="M0 -20 L10 20 L-10 20 Z" fill="#E6EAFF" opacity="0.8" stroke="white" stroke-width="0.5"/>
      <path d="M0 -20 L-4 -5 L4 -5 Z" fill="white" opacity="0.6"/>
    </g>
    
    <!-- Other small crystals for the remaining zodiac signs -->
    <g opacity="0.8">
      <path d="M-50 5 L-45 15 L-55 15 Z" fill="#90EE90" opacity="0.8" stroke="#CCFFCC" stroke-width="0.3"/>
      <path d="M50 0 L55 10 L45 10 Z" fill="#ADD8E6" opacity="0.8" stroke="#CCFFFF" stroke-width="0.3"/>
      <path d="M-15 15 L-10 25 L-20 25 Z" fill="#FFB6C1" opacity="0.8" stroke="#FFCCCC" stroke-width="0.3"/>
      <path d="M15 10 L20 20 L10 20 Z" fill="#FFD700" opacity="0.8" stroke="#FFFFCC" stroke-width="0.3"/>
      <path d="M-20 -20 L-15 -10 L-25 -10 Z" fill="#DDA0DD" opacity="0.8" stroke="#FFCCFF" stroke-width="0.3"/>
      <path d="M20 -25 L25 -15 L15 -15 Z" fill="#AFEEEE" opacity="0.8" stroke="#CCFFFF" stroke-width="0.3"/>
      <path d="M-30 -50 L-25 -40 L-35 -40 Z" fill="#FA8072" opacity="0.8" stroke="#FFCCCC" stroke-width="0.3"/>
    </g>
  </g>
  
  <!-- Astrological symbols subtly in background -->
  <g opacity="0.3" fill="none" stroke="#7777AA" stroke-width="0.5">
    <path d="M70 70 C80 60, 90 60, 100 70 C110 80, 110 90, 100 100" /> <!-- Aries -->
    <path d="M330 70 C320 80, 310 80, 300 70 M315 70 L315 90" /> <!-- Taurus -->
    <path d="M70 330 M65 325 L75 335 M75 325 L65 335" /> <!-- Gemini -->
    <path d="M330 330 C320 320, 320 310, 330 300 C340 310, 340 320, 330 330" /> <!-- Cancer -->
    <!-- More simplified symbol paths could be added -->
  </g>
  
  <!-- Product name -->
  <text x="200" y="380" text-anchor="middle" font-family="Arial, sans-serif" font-size="14" fill="#AAAAFF" font-weight="bold">
    Zodiac Crystal Collection
  </text>
</svg>