<?xml version="1.0" encoding="UTF-8" standalone="no"?>
<svg viewBox="0 0 200 200" version="1.1" xmlns="http://www.w3.org/2000/svg">
  <rect x="0" y="0" width="200" height="200" rx="100" ry="100" fill="#1DB954" opacity="0.9"/>
  <g transform="translate(40, 40)">
    <path d="M60,0 C26.8,0 0,26.8 0,60 C0,93.2 26.8,120 60,120 C93.2,120 120,93.2 120,60 C120,26.8 93.2,0 60,0 Z M87.6,86.7 C86.5,88.5 84.1,89.1 82.3,88 C68.3,79.8 50.9,77.9 29.9,82.6 C27.9,83 25.9,81.7 25.5,79.7 C25.1,77.7 26.4,75.7 28.4,75.3 C51.3,70.2 70.4,72.4 86.2,81.6 C88.1,82.7 88.6,85.1 87.5,86.9 L87.6,86.7 Z M94.9,70.4 C93.5,72.7 90.5,73.4 88.2,72 C72.1,62.4 48.5,59.3 29.1,65.1 C26.5,65.9 23.8,64.4 23,61.7 C22.2,59.1 23.7,56.4 26.4,55.6 C48.9,49 75.2,52.4 93.7,63.5 C96,65 96.7,68 95.3,70.3 L94.9,70.4 Z M95.4,53.4 C76.3,42.4 44.4,41.3 25.9,47 C22.6,48 19.1,46.2 18.1,42.9 C17.1,39.6 18.9,36.1 22.2,35.1 C43.6,28.5 79.1,29.9 101.2,42.5 C104.2,44.3 105.1,48.2 103.3,51.2 C101.5,54.2 97.6,55.1 94.6,53.3 L95.4,53.4 Z" fill="white" />
  </g>
</svg>