<?xml version="1.0" encoding="UTF-8" standalone="no"?>
<svg viewBox="0 0 200 200" version="1.1" xmlns="http://www.w3.org/2000/svg">
  <rect x="0" y="0" width="200" height="200" fill="#ffffff" rx="30" ry="30" opacity="0.9"/>
  <g transform="translate(25, 65)">
    <path d="M144.3,38.6c-1.7-6.2-6.5-11-12.6-12.6C120.3,23,75,23,75,23s-45.3,0-56.7,3c-6.1,1.7-11,6.5-12.6,12.6C2.7,50,2.7,73.5,2.7,73.5s0,23.5,3,34.9c1.7,6.2,6.5,11,12.6,12.6c11.4,3,56.7,3,56.7,3s45.3,0,56.7-3c6.1-1.7,11-6.5,12.6-12.6c3-11.4,3-34.9,3-34.9S147.3,50,144.3,38.6z" fill="#FF0000"/>
    <polygon points="60.8,94.5 60.8,52.5 97.7,73.5 " fill="#FFFFFF"/>
  </g>
</svg>