<?xml version="1.0" encoding="UTF-8"?>
<svg xmlns="http://www.w3.org/2000/svg" width="300" height="300" viewBox="0 0 300 300" fill="none">
  <defs>
    <linearGradient id="pendantGradient" x1="0%" y1="0%" x2="100%" y2="100%">
      <stop offset="0%" stop-color="#8a2be2" stop-opacity="0.8"/>
      <stop offset="50%" stop-color="#4b0082" stop-opacity="0.8"/>
      <stop offset="100%" stop-color="#9370db" stop-opacity="0.8"/>
    </linearGradient>
    <radialGradient id="crystalGlow" cx="50%" cy="50%" r="50%" fx="50%" fy="50%">
      <stop offset="0%" stop-color="#ffffff" stop-opacity="0.7"/>
      <stop offset="70%" stop-color="#e6e6fa" stop-opacity="0.3"/>
      <stop offset="100%" stop-color="#9370db" stop-opacity="0.1"/>
    </radialGradient>
    <filter id="glow" x="-50%" y="-50%" width="200%" height="200%">
      <feGaussianBlur stdDeviation="5" result="blur"/>
      <feComposite in="SourceGraphic" in2="blur" operator="over"/>
    </filter>
  </defs>
  
  <!-- Background Circle -->
  <circle cx="150" cy="150" r="130" fill="url(#pendantGradient)" opacity="0.2"/>
  
  <!-- Pendant Body -->
  <path d="M150 50 L200 150 L150 250 L100 150 Z" fill="url(#pendantGradient)" stroke="#a076f9" stroke-width="2"/>
  
  <!-- Crystal Details -->
  <circle cx="150" cy="150" r="35" fill="url(#crystalGlow)" filter="url(#glow)"/>
  
  <!-- Sacred Geometry Elements -->
  <circle cx="150" cy="150" r="60" fill="none" stroke="#e6e6fa" stroke-width="1" opacity="0.6"/>
  <circle cx="150" cy="150" r="75" fill="none" stroke="#e6e6fa" stroke-width="1" opacity="0.4"/>
  <path d="M150 90 L210 150 L150 210 L90 150 Z" fill="none" stroke="#e6e6fa" stroke-width="1" opacity="0.7"/>
  
  <!-- Chain -->
  <path d="M150 50 C 150 30, 150 30, 150 20" stroke="#a076f9" stroke-width="2" fill="none"/>
  
  <!-- Small Stars -->
  <g filter="url(#glow)">
    <circle cx="120" cy="100" r="2" fill="white"/>
    <circle cx="180" cy="100" r="2" fill="white"/>
    <circle cx="120" cy="200" r="2" fill="white"/>
    <circle cx="180" cy="200" r="2" fill="white"/>
    <circle cx="100" cy="150" r="2" fill="white"/>
    <circle cx="200" cy="150" r="2" fill="white"/>
  </g>
</svg>