<?xml version="1.0" encoding="UTF-8"?>
<svg xmlns="http://www.w3.org/2000/svg" width="300" height="300" viewBox="0 0 300 300" fill="none">
  <defs>
    <linearGradient id="shirtGradient" x1="0%" y1="0%" x2="100%" y2="100%">
      <stop offset="0%" stop-color="#0a043c" stop-opacity="1"/>
      <stop offset="100%" stop-color="#03506f" stop-opacity="1"/>
    </linearGradient>
    <radialGradient id="designGlow" cx="50%" cy="40%" r="50%" fx="50%" fy="40%">
      <stop offset="0%" stop-color="#b26fff" stop-opacity="0.6"/>
      <stop offset="100%" stop-color="#4800b3" stop-opacity="0.1"/>
    </radialGradient>
    <filter id="glow" x="-50%" y="-50%" width="200%" height="200%">
      <feGaussianBlur stdDeviation="3" result="blur"/>
      <feComposite in="SourceGraphic" in2="blur" operator="over"/>
    </filter>
  </defs>
  
  <!-- Background Circle -->
  <circle cx="150" cy="150" r="140" fill="url(#shirtGradient)" opacity="0.1"/>
  
  <!-- T-shirt Body -->
  <path d="M100 60 L200 60 L220 90 L180 90 L180 230 L120 230 L120 90 L80 90 Z" fill="url(#shirtGradient)" stroke="#4169e1" stroke-width="2"/>
  
  <!-- Shirt Sleeve Left -->
  <path d="M100 60 L80 90 L60 70" fill="url(#shirtGradient)" stroke="#4169e1" stroke-width="2"/>
  
  <!-- Shirt Sleeve Right -->
  <path d="M200 60 L220 90 L240 70" fill="url(#shirtGradient)" stroke="#4169e1" stroke-width="2"/>
  
  <!-- Sacred Geometry Design on Shirt -->
  <g filter="url(#glow)">
    <!-- Flower of Life Pattern -->
    <circle cx="150" cy="140" r="30" fill="none" stroke="#a076f9" stroke-width="1"/>
    <circle cx="150" cy="140" r="40" fill="none" stroke="#a076f9" stroke-width="1"/>
    <circle cx="150" cy="140" r="50" fill="none" stroke="#a076f9" stroke-width="1"/>
    
    <!-- Metatron's Cube Elements -->
    <circle cx="150" cy="140" r="15" fill="url(#designGlow)" opacity="0.6"/>
    <path d="M150 100 L180 120 L180 170 L150 190 L120 170 L120 120 Z" fill="none" stroke="#a076f9" stroke-width="1.5"/>
    <path d="M150 110 L170 125 L170 160 L150 175 L130 160 L130 125 Z" fill="none" stroke="#a076f9" stroke-width="1"/>
    
    <!-- Connecting Lines -->
    <line x1="150" y1="100" x2="150" y2="175" stroke="#a076f9" stroke-width="1"/>
    <line x1="120" y1="170" x2="180" y2="170" stroke="#a076f9" stroke-width="1"/>
    <line x1="120" y1="120" x2="180" y2="170" stroke="#a076f9" stroke-width="1"/>
    <line x1="180" y1="120" x2="120" y2="170" stroke="#a076f9" stroke-width="1"/>
    
    <!-- Stars within design -->
    <circle cx="150" cy="140" r="2" fill="white"/>
    <circle cx="170" cy="140" r="1.5" fill="white"/>
    <circle cx="130" cy="140" r="1.5" fill="white"/>
    <circle cx="150" cy="120" r="1.5" fill="white"/>
    <circle cx="150" cy="160" r="1.5" fill="white"/>
  </g>
</svg>