<?xml version="1.0" encoding="UTF-8"?>
<svg xmlns="http://www.w3.org/2000/svg" width="300" height="300" viewBox="0 0 300 300" fill="none">
  <defs>
    <linearGradient id="labGradient1" x1="0%" y1="0%" x2="100%" y2="100%">
      <stop offset="0%" stop-color="#2c3e50" stop-opacity="0.9"/>
      <stop offset="25%" stop-color="#34495e" stop-opacity="0.8"/>
      <stop offset="50%" stop-color="#34495e" stop-opacity="0.8"/>
      <stop offset="75%" stop-color="#2c3e50" stop-opacity="0.8"/>
      <stop offset="100%" stop-color="#1a2530" stop-opacity="0.9"/>
    </linearGradient>
    <linearGradient id="labGradient2" x1="0%" y1="0%" x2="100%" y2="100%">
      <stop offset="0%" stop-color="#3498db" stop-opacity="0.7"/>
      <stop offset="50%" stop-color="#5d9dcb" stop-opacity="0.4"/>
      <stop offset="100%" stop-color="#7ab0db" stop-opacity="0.7"/>
    </linearGradient>
    <radialGradient id="labFlash" cx="40%" cy="40%" r="60%" fx="40%" fy="40%">
      <stop offset="0%" stop-color="#a7c3d8" stop-opacity="0.9"/>
      <stop offset="50%" stop-color="#7db0d9" stop-opacity="0.4"/>
      <stop offset="100%" stop-color="#468cc3" stop-opacity="0.1"/>
    </radialGradient>
    <filter id="glow" x="-30%" y="-30%" width="160%" height="160%">
      <feGaussianBlur stdDeviation="3" result="blur"/>
      <feComposite in="SourceGraphic" in2="blur" operator="over"/>
    </filter>
  </defs>
  
  <!-- Background Circle -->
  <circle cx="150" cy="150" r="100" fill="url(#labGradient1)" opacity="0.15"/>
  
  <!-- Stone Base Shape -->
  <path d="M100 160 C 80 170, 80 200, 100 210 L 200 210 C 220 200, 220 170, 200 160 Z" fill="url(#labGradient1)" stroke="#34495e" stroke-width="1"/>
  
  <!-- Top Surface -->
  <ellipse cx="150" cy="160" rx="50" ry="30" fill="url(#labGradient1)" stroke="#34495e" stroke-width="1"/>
  
  <!-- Labradorite Flash Areas -->
  <g filter="url(#glow)">
    <path d="M120 160 Q 150 140, 170 150 Q 160 170, 130 170 Z" fill="url(#labFlash)" opacity="0.7"/>
    <path d="M155 155 Q 170 165, 170 175 Q 155 180, 145 170 Z" fill="url(#labGradient2)" opacity="0.6"/>
    <path d="M130 150 Q 140 140, 150 145 Q 145 160, 135 155 Z" fill="url(#labGradient2)" opacity="0.5"/>
  </g>
  
  <!-- Highlight Details -->
  <ellipse cx="150" cy="160" rx="40" ry="20" fill="none" stroke="#a7c3d8" stroke-width="0.5" opacity="0.4"/>
  <ellipse cx="150" cy="160" rx="30" ry="15" fill="none" stroke="#a7c3d8" stroke-width="0.5" opacity="0.3"/>
  
  <!-- Stone Texture Lines -->
  <line x1="120" y1="160" x2="180" y2="160" stroke="#34495e" stroke-width="0.5" opacity="0.4"/>
  <line x1="130" y1="150" x2="170" y2="170" stroke="#34495e" stroke-width="0.5" opacity="0.3"/>
  <line x1="130" y1="170" x2="170" y2="150" stroke="#34495e" stroke-width="0.5" opacity="0.3"/>
</svg>