<?xml version="1.0" encoding="UTF-8"?>
<svg xmlns="http://www.w3.org/2000/svg" width="300" height="300" viewBox="0 0 300 300" fill="none">
  <defs>
    <linearGradient id="amethystGradient" x1="0%" y1="0%" x2="100%" y2="100%">
      <stop offset="0%" stop-color="#9966cc" stop-opacity="0.9"/>
      <stop offset="50%" stop-color="#7a43b6" stop-opacity="0.8"/>
      <stop offset="100%" stop-color="#4b0082" stop-opacity="0.9"/>
    </linearGradient>
    <radialGradient id="amethystGlow" cx="50%" cy="50%" r="50%" fx="50%" fy="50%">
      <stop offset="0%" stop-color="#c5a9f9" stop-opacity="0.7"/>
      <stop offset="70%" stop-color="#9966cc" stop-opacity="0.5"/>
      <stop offset="100%" stop-color="#4b0082" stop-opacity="0.2"/>
    </radialGradient>
    <filter id="glow" x="-30%" y="-30%" width="160%" height="160%">
      <feGaussianBlur stdDeviation="5" result="blur"/>
      <feComposite in="SourceGraphic" in2="blur" operator="over"/>
    </filter>
  </defs>
  
  <!-- Background Circle -->
  <circle cx="150" cy="150" r="100" fill="url(#amethystGradient)" opacity="0.1"/>
  
  <!-- Base Rock -->
  <path d="M80 220 C 90 240, 210 240, 220 220 L 220 200 C 215 210, 85 210, 80 200 Z" fill="#302c34" stroke="#231f2a" stroke-width="1"/>
  
  <!-- Crystal Cluster -->
  <g filter="url(#glow)">
    <!-- Central Crystals -->
    <polygon points="140,120 160,120 165,70 135,70" fill="url(#amethystGradient)" stroke="#7a43b6" stroke-width="1"/>
    <polygon points="150,130 170,120 175,80 155,70" fill="url(#amethystGradient)" stroke="#7a43b6" stroke-width="1"/>
    <polygon points="130,120 150,130 145,80 125,70" fill="url(#amethystGradient)" stroke="#7a43b6" stroke-width="1"/>
    
    <!-- Left Crystals -->
    <polygon points="110,150 130,140 125,90 100,100" fill="url(#amethystGradient)" stroke="#7a43b6" stroke-width="1"/>
    <polygon points="95,160 115,150 110,110 85,120" fill="url(#amethystGradient)" stroke="#7a43b6" stroke-width="1"/>
    
    <!-- Right Crystals -->
    <polygon points="170,140 190,150 200,100 175,90" fill="url(#amethystGradient)" stroke="#7a43b6" stroke-width="1"/>
    <polygon points="185,150 205,160 215,120 190,110" fill="url(#amethystGradient)" stroke="#7a43b6" stroke-width="1"/>
    
    <!-- Smaller Crystals -->
    <polygon points="125,160 140,155 135,120 115,125" fill="url(#amethystGradient)" stroke="#7a43b6" stroke-width="1"/>
    <polygon points="160,155 175,160 185,125 165,120" fill="url(#amethystGradient)" stroke="#7a43b6" stroke-width="1"/>
    <polygon points="145,165 155,165 160,140 140,140" fill="url(#amethystGradient)" stroke="#7a43b6" stroke-width="1"/>
  </g>
  
  <!-- Crystal Highlights -->
  <line x1="150" y1="70" x2="150" y2="120" stroke="#c5a9f9" stroke-width="1" opacity="0.6"/>
  <line x1="165" y1="75" x2="165" y2="115" stroke="#c5a9f9" stroke-width="1" opacity="0.6"/>
  <line x1="135" y1="75" x2="135" y2="115" stroke="#c5a9f9" stroke-width="1" opacity="0.6"/>
  <line x1="110" y1="100" x2="110" y2="140" stroke="#c5a9f9" stroke-width="1" opacity="0.6"/>
  <line x1="190" y1="100" x2="190" y2="140" stroke="#c5a9f9" stroke-width="1" opacity="0.6"/>
  
  <!-- Base with Crystals -->
  <path d="M80 200 C 90 210, 210 210, 220 200 L 220 180 C 215 190, 85 190, 80 180 Z" fill="#342c39" stroke="#231f2a" stroke-width="1"/>
  <path d="M80 180 L 120 150 L 120 190 L 80 190 Z" fill="#302c34" stroke="#231f2a" stroke-width="1"/>
  <path d="M180 150 L 220 180 L 220 190 L 180 190 Z" fill="#302c34" stroke="#231f2a" stroke-width="1"/>
  <path d="M120 150 L 180 150 L 180 190 L 120 190 Z" fill="#342c39" stroke="#231f2a" stroke-width="1"/>
  
  <!-- Inner Glow Effect -->
  <circle cx="150" cy="120" r="40" fill="url(#amethystGlow)" opacity="0.3"/>
</svg>