<?xml version="1.0" encoding="UTF-8"?>
<svg xmlns="http://www.w3.org/2000/svg" width="300" height="300" viewBox="0 0 300 300" fill="none">
  <defs>
    <linearGradient id="cushionGradient" x1="0%" y1="0%" x2="100%" y2="100%">
      <stop offset="0%" stop-color="#7851a9" stop-opacity="1"/>
      <stop offset="100%" stop-color="#483d8b" stop-opacity="1"/>
    </linearGradient>
    <radialGradient id="starlight" cx="50%" cy="50%" r="50%" fx="50%" fy="50%">
      <stop offset="0%" stop-color="#ffffff" stop-opacity="0.8"/>
      <stop offset="70%" stop-color="#e6e6fa" stop-opacity="0.3"/>
      <stop offset="100%" stop-color="#9370db" stop-opacity="0.1"/>
    </radialGradient>
    <filter id="glow" x="-50%" y="-50%" width="200%" height="200%">
      <feGaussianBlur stdDeviation="4" result="blur"/>
      <feComposite in="SourceGraphic" in2="blur" operator="over"/>
    </filter>
  </defs>
  
  <!-- Background Circle -->
  <circle cx="150" cy="150" r="130" fill="url(#cushionGradient)" opacity="0.15"/>
  
  <!-- Cushion Base (Ellipse) -->
  <ellipse cx="150" cy="175" rx="120" ry="50" fill="url(#cushionGradient)" stroke="#a076f9" stroke-width="2"/>
  
  <!-- Cushion Top (Ellipse) -->
  <ellipse cx="150" cy="150" rx="120" ry="50" fill="url(#cushionGradient)" stroke="#a076f9" stroke-width="2"/>
  
  <!-- Cushion Side Detail -->
  <path d="M30 150 C 30 160, 30 165, 30 175" stroke="#a076f9" stroke-width="2" stroke-linecap="round"/>
  <path d="M270 150 C 270 160, 270 165, 270 175" stroke="#a076f9" stroke-width="2" stroke-linecap="round"/>
  <path d="M60 130 C 60 140, 60 155, 60 175" stroke="#a076f9" stroke-width="1" stroke-linecap="round"/>
  <path d="M240 130 C 240 140, 240 155, 240 175" stroke="#a076f9" stroke-width="1" stroke-linecap="round"/>
  <path d="M90 125 C 90 135, 90 155, 90 175" stroke="#a076f9" stroke-width="1" stroke-linecap="round"/>
  <path d="M210 125 C 210 135, 210 155, 210 175" stroke="#a076f9" stroke-width="1" stroke-linecap="round"/>
  
  <!-- Embroidered Cosmic Design -->
  <g filter="url(#glow)">
    <!-- Center mandala -->
    <circle cx="150" cy="150" r="40" fill="none" stroke="#e6e6fa" stroke-width="1" opacity="0.7"/>
    <circle cx="150" cy="150" r="30" fill="none" stroke="#e6e6fa" stroke-width="1" opacity="0.8"/>
    <circle cx="150" cy="150" r="20" fill="none" stroke="#e6e6fa" stroke-width="1" opacity="0.9"/>
    <circle cx="150" cy="150" r="10" fill="url(#starlight)" opacity="0.8"/>
    
    <!-- Constellation pattern -->
    <circle cx="130" cy="145" r="1.5" fill="white"/>
    <circle cx="170" cy="145" r="1.5" fill="white"/>
    <circle cx="140" cy="125" r="1.5" fill="white"/>
    <circle cx="160" cy="125" r="1.5" fill="white"/>
    <circle cx="140" cy="175" r="1.5" fill="white"/>
    <circle cx="160" cy="175" r="1.5" fill="white"/>
    <circle cx="120" cy="160" r="1.5" fill="white"/>
    <circle cx="180" cy="160" r="1.5" fill="white"/>
    
    <!-- Connecting constellation lines -->
    <line x1="130" y1="145" x2="140" y2="125" stroke="#e6e6fa" stroke-width="0.5" opacity="0.7"/>
    <line x1="140" y1="125" x2="160" y2="125" stroke="#e6e6fa" stroke-width="0.5" opacity="0.7"/>
    <line x1="160" y1="125" x2="170" y2="145" stroke="#e6e6fa" stroke-width="0.5" opacity="0.7"/>
    <line x1="170" y1="145" x2="180" y2="160" stroke="#e6e6fa" stroke-width="0.5" opacity="0.7"/>
    <line x1="180" y1="160" x2="160" y2="175" stroke="#e6e6fa" stroke-width="0.5" opacity="0.7"/>
    <line x1="160" y1="175" x2="140" y2="175" stroke="#e6e6fa" stroke-width="0.5" opacity="0.7"/>
    <line x1="140" y1="175" x2="120" y2="160" stroke="#e6e6fa" stroke-width="0.5" opacity="0.7"/>
    <line x1="120" y1="160" x2="130" y2="145" stroke="#e6e6fa" stroke-width="0.5" opacity="0.7"/>
  </g>
</svg>