<svg width="800" height="400" xmlns="http://www.w3.org/2000/svg" viewBox="0 0 800 400">
  <!-- Hawaii Islands Silhouette -->
  <g fill="#ffffff">
    <!-- Kauai (Northwest) -->
    <path d="M160,100 C180,90 200,100 210,120 C220,140 210,160 190,170 C170,180 150,170 140,150 C130,130 140,110 160,100 Z" />
    
    <!-- Oahu (Center-West) -->
    <path d="M300,130 C330,120 360,130 380,150 C400,170 400,200 380,220 C360,240 330,250 300,240 C270,230 250,200 260,170 C270,140 290,130 300,130 Z" />
    
    <!-- Molokai (Center) -->
    <path d="M440,180 C470,170 500,180 510,200 C520,220 510,240 480,250 C450,260 420,250 410,230 C400,210 410,190 440,180 Z" />
    
    <!-- Lanai (Small, below Molokai) -->
    <path d="M450,260 C460,255 470,260 475,270 C480,280 475,290 465,295 C455,300 445,295 440,285 C435,275 440,265 450,260 Z" />
    
    <!-- Maui (Center-East) -->
    <path d="M500,210 C530,200 560,210 580,230 C600,250 600,280 580,300 C560,320 530,330 500,320 C470,310 450,280 460,250 C470,220 490,210 500,210 Z" />
    
    <!-- Hawaii/Big Island (Southeast) -->
    <path d="M620,250 C660,230 700,240 730,270 C760,300 770,340 750,370 C730,400 690,410 650,390 C610,370 590,330 600,290 C610,260 630,250 620,250 Z" />
  </g>
</svg>