<?xml version="1.0" encoding="UTF-8"?>
<svg xmlns="http://www.w3.org/2000/svg" width="300" height="300" viewBox="0 0 300 300" fill="none">
  <defs>
    <linearGradient id="crystalGradient" x1="0%" y1="0%" x2="100%" y2="100%">
      <stop offset="0%" stop-color="#fcfcfc" stop-opacity="0.9"/>
      <stop offset="25%" stop-color="#f7f7ff" stop-opacity="0.8"/>
      <stop offset="50%" stop-color="#e6e6fa" stop-opacity="0.8"/>
      <stop offset="75%" stop-color="#f7f7ff" stop-opacity="0.8"/>
      <stop offset="100%" stop-color="#fcfcfc" stop-opacity="0.9"/>
    </linearGradient>
    <radialGradient id="innerGlow" cx="50%" cy="50%" r="50%" fx="50%" fy="50%">
      <stop offset="0%" stop-color="#ffffff" stop-opacity="0.9"/>
      <stop offset="70%" stop-color="#e6e6fa" stop-opacity="0.5"/>
      <stop offset="100%" stop-color="#a076f9" stop-opacity="0.2"/>
    </radialGradient>
    <filter id="glow" x="-30%" y="-30%" width="160%" height="160%">
      <feGaussianBlur stdDeviation="5" result="blur"/>
      <feComposite in="SourceGraphic" in2="blur" operator="over"/>
    </filter>
  </defs>
  
  <!-- Background Circle -->
  <circle cx="150" cy="150" r="100" fill="url(#crystalGradient)" opacity="0.1"/>
  
  <!-- Crystal Base -->
  <polygon points="110,230 190,230 170,180 130,180" fill="#e6e6fa" opacity="0.7" stroke="#a076f9" stroke-width="1"/>
  
  <!-- Crystal Point -->
  <polygon points="130,180 170,180 150,70" fill="url(#crystalGradient)" stroke="#a076f9" stroke-width="1.5" filter="url(#glow)"/>
  
  <!-- Inner Crystal Facets -->
  <polygon points="130,180 150,170 150,70" fill="#ffffff" opacity="0.5" stroke="#a076f9" stroke-width="0.5"/>
  <polygon points="170,180 150,170 150,70" fill="#ffffff" opacity="0.3" stroke="#a076f9" stroke-width="0.5"/>
  
  <!-- Crystal Highlights -->
  <line x1="150" y1="70" x2="150" y2="180" stroke="#ffffff" stroke-width="2" opacity="0.6"/>
  <line x1="140" y1="150" x2="160" y2="150" stroke="#ffffff" stroke-width="1" opacity="0.5"/>
  <line x1="135" y1="130" x2="165" y2="130" stroke="#ffffff" stroke-width="1" opacity="0.5"/>
  <line x1="130" y1="110" x2="170" y2="110" stroke="#ffffff" stroke-width="1" opacity="0.5"/>
  
  <!-- Crystal Inner Glow Effect -->
  <circle cx="150" cy="140" r="20" fill="url(#innerGlow)" opacity="0.4"/>
  
  <!-- Small Energy Lines -->
  <g filter="url(#glow)" opacity="0.7">
    <line x1="150" y1="65" x2="150" y2="55" stroke="#a076f9" stroke-width="1"/>
    <line x1="145" y1="67" x2="140" y2="60" stroke="#a076f9" stroke-width="1"/>
    <line x1="155" y1="67" x2="160" y2="60" stroke="#a076f9" stroke-width="1"/>
  </g>
</svg>