<?xml version="1.0" encoding="UTF-8"?>
<svg xmlns="http://www.w3.org/2000/svg" width="300" height="300" viewBox="0 0 300 300" fill="none">
  <defs>
    <linearGradient id="metatronGradient" x1="0%" y1="0%" x2="100%" y2="100%">
      <stop offset="0%" stop-color="#a076f9" stop-opacity="0.7"/>
      <stop offset="50%" stop-color="#7b52db" stop-opacity="0.6"/>
      <stop offset="100%" stop-color="#9370db" stop-opacity="0.7"/>
    </linearGradient>
    <filter id="glow" x="-20%" y="-20%" width="140%" height="140%">
      <feGaussianBlur stdDeviation="3" result="blur"/>
      <feComposite in="SourceGraphic" in2="blur" operator="over"/>
    </filter>
  </defs>
  
  <!-- Background Circle -->
  <circle cx="150" cy="150" r="140" fill="url(#metatronGradient)" opacity="0.1"/>
  
  <!-- Metatron's Cube -->
  <g filter="url(#glow)" opacity="0.9">
    <!-- Central Hexagon -->
    <polygon points="150,90 190,110 190,150 150,170 110,150 110,110" fill="none" stroke="#a076f9" stroke-width="1.5"/>
    
    <!-- Outer Hexagon -->
    <polygon points="150,50 210,80 210,150 150,180 90,150 90,80" fill="none" stroke="#a076f9" stroke-width="1.5"/>
    
    <!-- Inner Hexagon -->
    <polygon points="150,110 170,120 170,140 150,150 130,140 130,120" fill="none" stroke="#a076f9" stroke-width="1.5"/>
    
    <!-- Connection Lines -->
    <line x1="150" y1="50" x2="150" y2="180" stroke="#a076f9" stroke-width="1"/>
    <line x1="210" y1="80" x2="90" y2="150" stroke="#a076f9" stroke-width="1"/>
    <line x1="210" y1="150" x2="90" y2="80" stroke="#a076f9" stroke-width="1"/>
    <line x1="90" y1="80" x2="90" y2="150" stroke="#a076f9" stroke-width="1"/>
    <line x1="210" y1="80" x2="210" y2="150" stroke="#a076f9" stroke-width="1"/>
    
    <!-- Circle nodes -->
    <circle cx="150" cy="50" r="5" fill="#a076f9" opacity="0.7"/>
    <circle cx="210" cy="80" r="5" fill="#a076f9" opacity="0.7"/>
    <circle cx="210" cy="150" r="5" fill="#a076f9" opacity="0.7"/>
    <circle cx="150" cy="180" r="5" fill="#a076f9" opacity="0.7"/>
    <circle cx="90" cy="150" r="5" fill="#a076f9" opacity="0.7"/>
    <circle cx="90" cy="80" r="5" fill="#a076f9" opacity="0.7"/>
    
    <!-- Inner circle nodes -->
    <circle cx="150" cy="90" r="4" fill="#a076f9" opacity="0.7"/>
    <circle cx="190" cy="110" r="4" fill="#a076f9" opacity="0.7"/>
    <circle cx="190" cy="150" r="4" fill="#a076f9" opacity="0.7"/>
    <circle cx="150" cy="170" r="4" fill="#a076f9" opacity="0.7"/>
    <circle cx="110" cy="150" r="4" fill="#a076f9" opacity="0.7"/>
    <circle cx="110" cy="110" r="4" fill="#a076f9" opacity="0.7"/>
    
    <!-- Center circle -->
    <circle cx="150" cy="120" r="8" fill="#a076f9" opacity="0.7"/>
    
    <!-- Center Star -->
    <g opacity="0.4">
      <line x1="150" y1="90" x2="150" y2="150" stroke="#ffffff" stroke-width="0.8"/>
      <line x1="110" y1="110" x2="190" y2="150" stroke="#ffffff" stroke-width="0.8"/>
      <line x1="110" y1="150" x2="190" y2="110" stroke="#ffffff" stroke-width="0.8"/>
    </g>
    
    <!-- Small Stars -->
    <circle cx="120" cy="100" r="1.5" fill="white"/>
    <circle cx="180" cy="100" r="1.5" fill="white"/>
    <circle cx="120" cy="140" r="1.5" fill="white"/>
    <circle cx="180" cy="140" r="1.5" fill="white"/>
    <circle cx="150" cy="70" r="1.5" fill="white"/>
    <circle cx="150" cy="170" r="1.5" fill="white"/>
  </g>
  
  <!-- Canvas Frame -->
  <rect x="60" y="40" width="180" height="210" rx="2" ry="2" fill="none" stroke="#a076f9" stroke-width="1.5" opacity="0.6"/>
</svg>