<?xml version="1.0" encoding="UTF-8"?>
<svg xmlns="http://www.w3.org/2000/svg" width="300" height="300" viewBox="0 0 300 300" fill="none">
  <defs>
    <linearGradient id="bowlGradient" x1="0%" y1="0%" x2="100%" y2="100%">
      <stop offset="0%" stop-color="#d4af37" stop-opacity="0.9"/>
      <stop offset="50%" stop-color="#b8860b" stop-opacity="0.8"/>
      <stop offset="100%" stop-color="#cd7f32" stop-opacity="0.9"/>
    </linearGradient>
    <radialGradient id="bowlGlow" cx="50%" cy="50%" r="60%" fx="50%" fy="50%">
      <stop offset="0%" stop-color="#ffdf00" stop-opacity="0.5"/>
      <stop offset="70%" stop-color="#daa520" stop-opacity="0.3"/>
      <stop offset="100%" stop-color="#cd7f32" stop-opacity="0.1"/>
    </radialGradient>
    <filter id="soundWaves" x="-30%" y="-30%" width="160%" height="160%">
      <feGaussianBlur stdDeviation="1" result="blur"/>
      <feComposite in="SourceGraphic" in2="blur" operator="over"/>
    </filter>
    <filter id="glow" x="-20%" y="-20%" width="140%" height="140%">
      <feGaussianBlur stdDeviation="3" result="blur"/>
      <feComposite in="SourceGraphic" in2="blur" operator="over"/>
    </filter>
  </defs>
  
  <!-- Background Circle -->
  <circle cx="150" cy="150" r="110" fill="url(#bowlGradient)" opacity="0.1"/>
  
  <!-- Bowl Base -->
  <ellipse cx="150" cy="195" rx="60" ry="15" fill="url(#bowlGradient)" opacity="0.8" stroke="#b8860b" stroke-width="1"/>
  
  <!-- Bowl Body -->
  <path d="M105 140 C 105 180, 195 180, 195 140" fill="none" stroke="#b8860b" stroke-width="2"/>
  <path d="M105 140 C 105 125, 195 125, 195 140" fill="url(#bowlGradient)" opacity="0.8" stroke="#b8860b" stroke-width="2"/>
  
  <!-- Bowl Interior -->
  <ellipse cx="150" cy="140" rx="45" ry="12" fill="url(#bowlGradient)" opacity="0.9" stroke="#b8860b" stroke-width="1"/>
  
  <!-- Bowl Rim Highlights -->
  <ellipse cx="150" cy="140" rx="43" ry="10" fill="none" stroke="#ffdf00" stroke-width="1" opacity="0.7"/>
  
  <!-- Sound Waves Emanating -->
  <g filter="url(#soundWaves)">
    <ellipse cx="150" cy="140" rx="55" ry="18" fill="none" stroke="#daa520" stroke-width="0.5" opacity="0.4"/>
    <ellipse cx="150" cy="140" rx="65" ry="23" fill="none" stroke="#daa520" stroke-width="0.5" opacity="0.3"/>
    <ellipse cx="150" cy="140" rx="75" ry="28" fill="none" stroke="#daa520" stroke-width="0.5" opacity="0.2"/>
  </g>
  
  <!-- Striker -->
  <g filter="url(#glow)">
    <line x1="230" y1="120" x2="190" y2="140" stroke="#cd7f32" stroke-width="1.5"/>
    <circle cx="235" cy="117" r="8" fill="#cd7f32" stroke="#b8860b" stroke-width="1"/>
    <circle cx="235" cy="117" r="5" fill="#daa520" opacity="0.5"/>
  </g>
  
  <!-- Inner Bowl Glow -->
  <ellipse cx="150" cy="140" rx="30" ry="8" fill="url(#bowlGlow)" opacity="0.4"/>
  
  <!-- Decorative Etching -->
  <circle cx="150" cy="160" r="30" fill="none" stroke="#daa520" stroke-width="0.5" opacity="0.8"/>
  <circle cx="150" cy="160" r="25" fill="none" stroke="#daa520" stroke-width="0.5" opacity="0.8"/>
  <path d="M125 160 L175 160" stroke="#daa520" stroke-width="0.5" opacity="0.8"/>
  <path d="M150 135 L150 185" stroke="#daa520" stroke-width="0.5" opacity="0.8"/>
  
  <!-- Sanskrit Symbol Representation -->
  <circle cx="150" cy="160" r="10" fill="none" stroke="#daa520" stroke-width="0.7" opacity="0.9"/>
  <path d="M145 155 L155 165 M155 155 L145 165" stroke="#daa520" stroke-width="0.7" opacity="0.9"/>
</svg>